<?xml version="1.0" encoding="UTF-8"?>
<svg version="1.1" viewBox="0 0 1587.2 1587.2" xmlns="http://www.w3.org/2000/svg">
<path d="m763.59 1374.5c-0.23081-0.2617-0.96902-0.4678-1.6754-0.4678-2.3993 0-12.454-3.0895-14.072-4.3241-0.264-0.2014-1.344-0.7723-2.4-1.2685-2.0093-0.9444-4.7929-2.7871-7.9486-5.2619-2.5085-1.9674-14.594-14.002-42.603-42.426-26.921-27.319-42.027-42.588-58.248-58.874-9.7365-9.7758-31.707-31.99-65.116-65.836-3.9576-4.0095-7.3416-7.2878-7.52-7.2851-0.34784 0.01-6.1011 5.3198-7.6731 7.088-0.52179 0.5869-1.9463 2.0031-3.1656 3.1471-1.2193 1.144-3.0243 2.944-4.0113 4-0.98694 1.056-2.65 2.712-3.6958 3.68-1.0458 0.968-3.6621 3.488-5.8141 5.6-2.152 2.112-4.2484 4.1673-4.6586 4.5674-3.1993 3.1197-6.7424 6.6542-7.9459 7.9266-0.792 0.8373-2.3556 2.4007-3.4746 3.4742-2.2047 2.115-9.8415 9.5263-10.956 10.633-0.37751 0.3747-1.9289 1.9129-3.4476 3.4183-1.5187 1.5054-3.4802 3.5029-4.3589 4.4388-0.87872 0.9359-2.4543 2.4936-3.5014 3.4616s-3.6645 3.488-5.8164 5.6c-2.152 2.112-4.2208 4.128-4.5974 4.48-0.37655 0.352-1.8687 1.864-3.3159 3.36s-3.2748 3.3059-4.0612 4.022c-0.78646 0.7162-2.2348 2.1562-3.2186 3.2-0.98378 1.0439-3.9358 3.9527-6.56 6.4641-6.1341 5.8702-5.5491 5.2981-8.2552 8.0739-1.2868 1.32-3.1746 3.1636-4.1951 4.097l-1.8555 1.697-1.1018-1.057c-0.60599-0.5814-8.5956-8.6543-17.755-17.94l-16.653-16.883 2.0419-1.9971c1.123-1.0985 2.6899-2.7034 3.4819-3.5665s2.1064-2.099 2.921-2.7464 2.358-2.1961 3.4298-3.4415c1.0719-1.2454 2.8027-2.9352 3.8463-3.755 1.0436-0.8199 2.566-2.3244 3.3833-3.3434 0.81732-1.0189 2.0921-2.3413 2.8328-2.9385 1.4736-1.1881 3.7984-3.4751 5.8856-5.7897 0.73632-0.8166 2.1403-2.0768 3.12-2.8006 0.97964-0.7237 1.7812-1.4344 1.7812-1.5794 0-0.4858 3.8425-4.4635 5.4555-5.6476 0.87722-0.6439 2.2346-2.0021 3.0165-3.0182 0.78186-1.0162 2.3098-2.5501 3.3953-3.409 1.0856-0.8587 2.2759-1.9214 2.6452-2.3614 0.36931-0.44 1.971-2.0613 3.5594-3.6029 1.5884-1.5416 3.3903-3.3416 4.0043-4s2.2598-2.2771 3.6573-3.5971c1.3976-1.32 3.1968-3.12 3.9982-4 0.80148-0.88 2.3833-2.464 3.5151-3.52s3.7432-3.576 5.8029-5.6c2.0598-2.024 4.0487-3.968 4.42-4.32 0.37127-0.352 1.8022-1.792 3.1799-3.2s3.2171-3.2263 4.0875-4.0406c0.87043-0.8144 2.4649-2.3984 3.5432-3.52 1.0783-1.1217 2.7396-2.7594 3.6916-3.6394 0.95207-0.88 2.3018-2.2561 2.9994-3.058 0.6976-0.8018 2.0604-2.0978 3.0284-2.88 0.968-0.7821 2.1147-1.854 2.5482-2.382 0.43351-0.528 1.6935-1.8671 2.8-2.9757 2.5927-2.5978 3.3928-1.3145-7.6908-12.336-5.3364-5.3066-16.566-16.607-24.954-25.113-8.6966-8.8183-15.448-15.42-15.71-15.36-0.25213 0.058-10.055 9.6087-21.784 21.225-11.729 11.616-23.802 23.554-26.828 26.528-8.8424 8.6916-53.676 53.067-54.595 54.037l-0.83888 0.8855-9.7655-9.8455c-30.227-30.474-63.514-64.178-63.593-64.387-0.0498-0.1328 1.5342-1.8626 3.52-3.844 4.7265-4.7162 43.666-43.247 53.051-52.494 31.271-30.812 47.05-46.581 46.971-46.942-0.11389-0.5242-39.692-40.744-69.532-70.66-6.512-6.5285-22.131-22.303-34.709-35.054-12.578-12.751-28.082-28.394-34.453-34.763-6.371-6.3687-11.704-11.793-11.851-12.054s-4.5154-4.7997-9.7074-10.087c-9.2996-9.4694-13.022-13.39-14.433-15.201-0.39451-0.50637-1.0164-1.2422-1.3821-1.635-2.3158-2.4884-8.8248-10.36-8.8248-10.672 0-0.17568-0.10884-0.36743-0.24186-0.42611-0.13302-0.0587-1.3797-1.5467-2.7704-3.3067-1.3907-1.76-2.6859-3.344-2.8781-3.52s-0.54339-0.69642-0.78031-1.1564c-0.23693-0.46006-0.75303-1.184-1.1469-1.6088-0.39387-0.42476-1.888-2.4244-3.3204-4.4436-1.4323-2.0192-2.7174-3.8152-2.8556-3.9912-0.13826-0.176-0.52674-0.74829-0.86328-1.2718-0.33655-0.52348-0.87542-1.2346-1.1975-1.5804-0.32208-0.34569-0.58559-0.74118-0.58559-0.87885 0-0.25593-1.9199-3.1797-2.278-3.469-0.34077-0.27536-8.282-13.142-8.282-13.419 0-0.14448-0.20274-0.43095-0.45052-0.63661-0.24779-0.20563-0.68377-0.83527-0.96885-1.3992s-0.69434-1.3098-0.90948-1.6575c-1.8835-3.0443-2.4712-4.0493-2.4712-4.2264 0-0.11344-0.81699-1.6586-1.8155-3.4338-0.99853-1.7752-2.151-3.8756-2.561-4.6676-0.41003-0.792-0.8844-1.656-1.0542-1.92s-0.74166-1.416-1.2709-2.56c-0.52925-1.144-1.2508-2.584-1.6033-3.2-0.35259-0.616-1.4481-2.848-2.4344-4.96-2.3645-5.063-3.3784-7.2355-4.5832-9.8198-0.54864-1.1769-0.99753-2.2225-0.99753-2.3235 0-0.10099-0.30324-0.86608-0.67387-1.7002-1.2074-2.7171-1.511-3.4177-2.0441-4.7165-0.28894-0.704-0.65188-1.568-0.80652-1.92-0.87741-1.9972-3.6997-9.4542-4.7839-12.64-0.32944-0.968-1.2033-3.416-1.9418-5.44s-1.4573-4.184-1.5972-4.8-0.5386-1.912-0.886-2.88c-0.34739-0.968-0.8755-2.624-1.1736-3.68-0.29807-1.056-0.66265-2.208-0.81018-2.56-0.27754-0.66218-0.88946-2.9208-1.1704-4.32-0.0884-0.44-0.28296-1.088-0.43244-1.44s-0.34393-1-0.4321-1.44c-0.0882-0.44-0.89242-3.6076-1.7872-7.0392-1.7609-6.7529-2.4618-9.7392-2.9294-12.481-0.1651-0.968-0.43401-2.048-0.59756-2.4-0.16356-0.352-0.36705-1.216-0.4522-1.92-0.32441-2.6819-0.60274-4.1784-0.87219-4.6895-0.15354-0.2912-0.37316-1.5872-0.48803-2.88-0.11488-1.2928-0.32762-2.5827-0.47276-2.8665-0.23809-0.4655-0.66814-3.5632-0.66139-4.764 2e-3 -0.264-0.11802-0.768-0.26557-1.12-0.35931-0.85718-1.3744-8.4938-1.1578-8.7104 0.0939-0.0939-0.0338-0.56621-0.28375-1.0496-0.24996-0.48336-0.38928-0.94406-0.30959-1.0237 0.0797-0.0797-0.14537-2.9375-0.50012-6.3506s-0.57373-6.3914-0.48662-6.6185c0.0871-0.22701 8e-3 -0.80749-0.1756-1.29-0.18369-0.48247-0.39668-2.7492-0.47331-5.0372-0.0766-2.288-0.3041-4.911-0.50548-5.8289-0.28197-1.2852-0.27717-1.7761 0.0209-2.1352 0.30068-0.36227 0.30305-0.91808 0.0106-2.4911-0.48903-2.6308-0.49689-26.582-0.01-29.012 0.24319-1.2123 0.2432-1.8923 6e-5 -2.3466-0.24009-0.44864-0.24323-1.0858-0.0105-2.1331 0.18251-0.82134 0.40738-3.3653 0.49971-5.6533 0.0923-2.288 0.30681-4.6363 0.47661-5.2183 0.16981-0.58208 0.24282-1.2301 0.16225-1.4401-0.0806-0.20995 1e-3 -1.6777 0.18215-3.2617 0.18075-1.5839 0.40057-3.8191 0.48849-4.9669 0.0879-1.1479 0.45437-4.1719 0.81434-6.72 0.35996-2.5482 0.77438-5.7363 0.92093-7.0847 0.14656-1.3485 0.40799-2.9325 0.58097-3.52 0.17299-0.58756 0.32412-1.4018 0.33585-1.8094 0.0117-0.40765 0.18998-1.5535 0.3961-2.5464 0.20612-0.99287 0.4054-2.1714 0.44285-2.6188 0.1273-1.5211 0.88059-5.611 1.1518-6.2536 0.14856-0.352 0.64523-2.584 1.1037-4.96s1.035-5.112 1.281-6.08c0.6764-2.6606 2.0798-8.2957 2.4705-9.92 0.19051-0.792 0.84132-3.168 1.4462-5.28 0.60493-2.112 1.3101-4.632 1.567-5.6 0.54403-2.0495 1.5619-5.2303 3.5327-11.04 0.77617-2.288 1.7107-5.096 2.0767-6.24 0.36602-1.144 0.84273-2.512 1.0593-3.04 0.21662-0.528 0.54671-1.392 0.73353-1.92 0.30601-0.86486 2.6536-7.0517 3.2783-8.64 0.13846-0.352 0.6112-1.4393 1.0505-2.4162 0.43932-0.9769 1.0279-2.4512 1.308-3.2762 0.28009-0.825 0.63938-1.7537 0.79842-2.0638s0.67413-1.4278 1.1446-2.4838 1.2067-2.6423 1.6359-3.5251c0.42924-0.88281 0.78044-1.7069 0.78044-1.8313 0-0.2679 1.5246-3.7125 1.9491-4.4037 0.16214-0.264 1.0179-1.992 1.9016-3.84 2.5027-5.2334 5.9051-11.75 6.4245-12.304 0.15664-0.1672 0.2848-0.47648 0.2848-0.6873 0-0.21081 0.58129-1.3401 1.2918-2.5096 0.71047-1.1694 1.7209-2.9482 2.2454-3.9527 0.52452-1.0045 1.3102-2.4024 1.7461-3.1064 0.43581-0.704 0.89309-1.496 1.0162-1.76 0.244-0.52339 1.6995-2.8786 6.6248-10.72 1.7688-2.816 3.3329-5.264 3.4759-5.44 0.41072-0.50566 4.3943-6.2342 5.5631-8 1.298-1.961 2.8941-4.2276 3.3374-4.7394 0.18132-0.20931 0.89926-1.1726 1.5954-2.1406 0.69616-0.968 1.3777-1.904 1.5145-2.08 0.13681-0.176 0.6764-0.89555 1.1991-1.599 0.52269-0.70345 2.3904-3.0559 4.1504-5.2278 1.76-2.1718 3.416-4.2545 3.68-4.6281 0.264-0.37363 1.0353-1.2612 1.714-1.9722 0.67867-0.71107 1.6379-1.8689 2.1316-2.5729 0.49369-0.704 1.1624-1.5099 1.486-1.7909s1.8124-1.9729 3.3084-3.7597c1.496-1.7868 2.8125-3.2489 2.9255-3.2491s1.265-1.259 2.56-2.7974c3.6676-4.3571 16.71-17.21 22.994-22.66 0.968-0.83949 2.0538-1.8271 2.4128-2.1947 0.85527-0.87568 4.5076-4.0443 5.3072-4.6044 0.34391-0.24087 1.0156-0.80346 1.4926-1.2502 1.254-1.1743 9.6649-7.9492 12.432-10.014 1.2973-0.968 3.618-2.6802 5.1571-3.8049 1.539-1.1247 2.8463-2.1687 2.9049-2.32 0.0587-0.15129 0.25984-0.27507 0.44705-0.27507 0.1872 0 0.9312-0.47328 1.6533-1.0518 0.72213-0.57846 2.7993-2.0545 4.6159-3.28 1.8166-1.2255 3.5446-2.3932 3.84-2.5948 2.2689-1.5489 10.091-6.5736 10.968-7.0458 0.60037-0.32315 1.5452-0.91155 2.0996-1.3076 0.55443-0.396 1.091-0.72 1.1924-0.72 0.10142 0 0.97227-0.504 1.9352-1.12 0.96297-0.616 1.8435-1.12 1.9568-1.12 0.11328 0 0.62627-0.29928 1.14-0.66507 0.51371-0.36579 1.6879-1.0579 2.6094-1.538 0.92147-0.48011 2.3954-1.2798 3.2754-1.7772 5.0361-2.8461 23.355-12.02 24.002-12.02 0.0775 0 1.1765-0.504 2.4423-1.12 1.2657-0.616 2.4554-1.12 2.6438-1.12 0.18838 0 1.0646-0.34635 1.9471-0.76965 0.88253-0.42332 2.6126-1.1653 3.8446-1.6489s2.9871-1.2172 3.9002-1.6303c0.91309-0.4131 1.7771-0.75068 1.92-0.75017 0.14288 6.4e-4 1.1958-0.37631 2.3398-0.83737 5.0532-2.0366 10.351-3.9636 10.898-3.9636 0.27193 0 0.63123-0.13366 0.79843-0.29702s1.816-0.73982 3.664-1.281 3.648-1.1111 4-1.2665 1.216-0.44238 1.92-0.63776c4.0967-1.137 7.9292-2.2951 8.2486-2.4925 0.2024-0.12508 0.94925-0.3289 1.6597-0.45292 0.71043-0.12403 2.0837-0.45385 3.0517-0.73294s3.056-0.81196 4.64-1.1842c1.584-0.37218 3.672-0.88807 4.64-1.1464s2.408-0.59699 3.2-0.75253c0.792-0.15555 2.448-0.51348 3.68-0.7954 1.232-0.28193 2.96-0.59567 3.84-0.69721 0.88-0.10153 1.744-0.29123 1.92-0.42155 0.176-0.13033 1.1037-0.33675 2.0616-0.45873 0.95792-0.12197 1.8927-0.31515 2.0774-0.42928 0.18467-0.11414 0.98493-0.25632 1.7784-0.31598 0.79344-0.0596 2.2346-0.29531 3.2026-0.52369s2.3205-0.44344 3.0055-0.47792c0.68503-0.0345 1.5036-0.20079 1.819-0.3696 0.31542-0.1688 1.4181-0.30691 2.4505-0.30691 1.0324 0 2.0148-0.13777 2.1832-0.30616 0.16842-0.16839 1.3852-0.3958 2.704-0.50537 2.6639-0.22131 3.5473-0.31947 7.0379-0.78208 1.32-0.17494 2.5982-0.24546 2.8405-0.15671 0.24234 0.0888 0.60234 0.0276 0.8-0.136 0.1977-0.16354 2.0634-0.38092 4.146-0.48305 2.0826-0.10214 3.9255-0.27157 4.0953-0.37652 0.16982-0.10496 2.3538-0.25297 4.8534-0.32892 2.4996-0.0759 5.5634-0.28522 6.8086-0.46504 1.5349-0.22167 2.5394-0.22222 3.1194-2e-3 0.57731 0.21949 1.4018 0.22037 2.5361 3e-3 2.2822-0.43799 18.584-0.42665 21.017 0.0146 1.3867 0.25146 2.1184 0.25311 2.5804 6e-3 0.45638-0.24425 1.4164-0.24833 3.2839-0.014 1.4515 0.18215 4.439 0.40533 6.639 0.49596 6.1689 0.25411 12.247 0.80329 13.009 1.1755 0.37923 0.18503 0.82339 0.25366 0.98707 0.15251 0.16365-0.10115 1.3654-0.0451 2.6705 0.12449 3.6546 0.47496 4.4318 0.56206 6.9977 0.78421 1.3116 0.11356 2.6076 0.3155 2.88 0.44876 0.27242 0.13327 1.3485 0.27002 2.3913 0.3039 1.0428 0.0339 2.0533 0.19217 2.2456 0.35177 0.19229 0.15959 1.1391 0.36734 2.104 0.46167 3.6444 0.35626 19.478 3.4941 25.075 4.9693 1.3863 0.36537 2.8555 0.66432 3.265 0.66432s1.0752 0.12585 1.4795 0.27967c0.95821 0.36458 3.5583 1.1476 5.3751 1.6188 0.792 0.20538 2.1073 0.58226 2.9229 0.83749 0.81562 0.25523 1.7791 0.46406 2.1411 0.46406 0.36199 0 0.74717 0.144 0.85594 0.32s0.43277 0.32 0.71997 0.32c0.55449 0 4.8655 1.2783 7.6993 2.283 0.9346 0.33135 2.2306 0.73018 2.88 0.8863 0.64941 0.15612 2.8367 0.88428 4.8607 1.6181s4.544 1.6306 5.6 1.9929c1.056 0.36222 2.0568 0.78484 2.224 0.93914s0.55926 0.28055 0.87126 0.28055c0.31197 0 1.3272 0.34459 2.256 0.76576 0.9288 0.42117 3.2727 1.3744 5.2087 2.1184 1.936 0.74394 3.6568 1.4793 3.824 1.6342s0.48726 0.28163 0.71126 0.28163c0.22397 0 1.1672 0.34349 2.096 0.76332 1.5961 0.72144 3.4714 1.5553 6.0087 2.6717 4.9221 2.1657 20.15 9.6875 22.603 11.164 0.98691 0.59429 1.8694 1.0805 1.961 1.0805 0.0916 0 1.0787 0.576 2.1934 1.28 1.1147 0.704 2.1529 1.28 2.3071 1.28 0.15421 0 1.5617 0.79056 3.1278 1.7568 1.5661 0.96625 3.2795 1.9913 3.8075 2.278 1.0115 0.54909 9.6527 5.992 14.678 9.2452 2.8276 1.8306 9.5648 6.5558 10.922 7.6605 0.352 0.28646 1.8764 1.4161 3.3877 2.5102 2.8248 2.0451 3.473 2.5407 7.6257 5.8293 1.3334 1.056 2.6409 2.0912 2.9055 2.3005 4.13 3.2666 15.297 12.92 18.255 15.779 0.81907 0.792 3.4029 3.24 5.742 5.44s4.5457 4.36 4.9037 4.8c0.35802 0.44 5.99 6.1497 12.516 12.688 6.5256 6.5386 13.809 13.91 16.185 16.382 2.376 2.4713 4.5379 4.5016 4.8043 4.5117 0.4615 0.0176 9.2757-8.547 9.2757-9.0131 0-0.24947 25.917-26.184 31.907-31.928 6.4217-6.1585 11.413-10.575 18.653-16.504 2.8866-2.3641 4.0052-3.2942 4.5957-3.8213 1.01-0.90163 6.2105-4.8205 9.3243-7.0265 1.936-1.3716 3.568-2.6185 3.6267-2.771 0.0587-0.15251 0.29305-0.27728 0.52083-0.27728 0.22777 0 0.58915-0.21088 0.80307-0.46864 0.21392-0.25773 1.1316-0.97415 2.0392-1.592 3.8163-2.5979 5.4966-3.8203 5.5969-4.072 0.0587-0.14707 0.25593-0.2674 0.43836-0.2674 0.1824 0 2.1774-1.224 4.4332-2.72s4.1627-2.72 4.2373-2.72c0.0747 0 1.1997-0.69825 2.5001-1.5516 1.3004-0.85341 3.0276-1.919 3.8382-2.3679 0.81065-0.44894 2.658-1.5507 4.1053-2.4484 1.4473-0.89765 2.7676-1.6321 2.934-1.6321 0.16637 0 1.2145-0.576 2.3292-1.28 1.1147-0.704 2.1329-1.28 2.2628-1.28 0.12983 0 0.61824-0.26672 1.0854-0.5927 0.85194-0.59446 4.3004-2.3834 7.8894-4.0928 1.056-0.50296 1.992-1.0051 2.08-1.1158 0.088-0.11073 1.456-0.8069 3.04-1.547s3.5475-1.6936 4.3633-2.1187c0.81584-0.42512 1.7158-0.77295 2-0.77295 0.28419 0 0.51724-0.108 0.51788-0.24 0-0.132 0.68468-0.51894 1.52-0.85986 0.83536-0.34093 2.8439-1.2409 4.4634-2 1.6195-0.75908 3.0378-1.3801 3.1516-1.3801 0.11389 0 0.7328-0.22814 1.3754-0.50697 0.64259-0.27884 2.0324-0.8707 3.0884-1.3152s2.352-0.993 2.88-1.2188 1.464-0.58657 2.08-0.80173c0.616-0.21517 1.8799-0.73457 2.8087-1.1542 0.92883-0.41967 1.9643-0.76303 2.3011-0.76303s0.70137-0.144 0.81014-0.32 0.41952-0.32 0.69053-0.32 0.94649-0.20655 1.5011-0.459c0.55459-0.25245 2.1604-0.84516 3.5684-1.3171s2.992-1.0437 3.52-1.2704c0.528-0.22674 2.04-0.72018 3.36-1.0965 1.32-0.37634 2.904-0.87548 3.52-1.1092 1.2079-0.45828 3.4583-1.1566 5.76-1.7873 0.792-0.21703 1.8-0.5049 2.24-0.63971 1.1947-0.36604 4.1284-1.1914 5.76-1.6205 0.792-0.20829 2.088-0.55937 2.88-0.78018 2.3946-0.66761 3.4375-0.92665 10.88-2.7022 0.616-0.14696 3.856-0.80444 7.2-1.4611 3.344-0.65663 6.296-1.2657 6.56-1.3535 0.264-0.0878 0.84-0.19614 1.28-0.2408 2.3648-0.24005 7.9157-1.209 8.3956-1.4654 0.30563-0.16333 1.3591-0.29697 2.341-0.29697 0.98202 0 2.0445-0.1387 2.3613-0.30822 0.3167-0.16952 1.6392-0.39693 2.9389-0.50537 2.5064-0.2091 3.3082-0.2973 6.7942-0.74734 1.2052-0.15558 2.4659-0.21102 2.8017-0.12321 0.3358 0.0878 0.7932 8e-3 1.0164-0.17714 0.2232-0.18525 2.1105-0.41966 4.194-0.52093 2.0835-0.10126 3.9306-0.27216 4.1047-0.37977s2.3541-0.25317 4.8444-0.32347c2.4902-0.0703 5.5647-0.27764 6.8322-0.46074 1.5814-0.22845 2.4976-0.22958 2.9199-4e-3 0.4162 0.22276 1.2236 0.22666 2.4954 0.0121 2.4408-0.41185 18.919-0.41177 21.36 1e-4 1.2717 0.21452 2.0793 0.21059 2.4954-0.0122 0.4222-0.22592 1.3389-0.22508 2.9199 3e-3 1.2675 0.18261 4.2485 0.40684 6.6245 0.4983 2.376 0.0915 6.336 0.38027 8.8 0.64181s5.56 0.55057 6.88 0.64227 2.76 0.26148 3.2 0.37728c0.8421 0.22163 1.2825 0.27161 5.078 0.57631 1.2969 0.10412 2.5929 0.30476 2.88 0.44588 0.2871 0.14111 1.3752 0.2843 2.418 0.31818 1.0428 0.0339 2.0533 0.19217 2.2456 0.35176s1.1391 0.36588 2.104 0.45842c0.9649 0.0925 2.4056 0.3082 3.2014 0.47926 0.7959 0.17107 2.0199 0.38797 2.72 0.482 1.7337 0.23287 5.3146 0.9378 9.913 1.9515 2.112 0.46558 4.488 0.9656 5.28 1.1112 2.0717 0.38075 7.6131 1.7329 11.2 2.733 0.792 0.22081 2.088 0.57189 2.88 0.78018s2.232 0.60573 3.2 0.8832c0.968 0.27746 2.264 0.64693 2.88 0.82105 0.616 0.17411 1.696 0.49568 2.4 0.71461 0.704 0.21892 1.928 0.57618 2.72 0.79389s1.944 0.59569 2.56 0.83996c0.616 0.24426 1.912 0.64661 2.88 0.89412l1.76 0.45001 1.8849-1.8085c1.0368-0.99468 7.7067-7.5685 14.822-14.609 7.1154-7.04 16.302-16.112 20.414-20.16 4.1121-4.048 17.511-17.296 29.775-29.44 12.264-12.144 25.126-24.863 28.581-28.265 3.4557-3.4017 11.2-11.07 17.21-17.04 6.0101-5.9702 11.078-10.855 11.262-10.855 0.1838 0 14.566 14.148 31.962 31.44 17.395 17.292 33.963 33.738 36.818 36.547 6.19 6.0898 6.066 4.7537 0.9148 9.8568-42.579 42.182-78.691 77.89-87.316 86.34-6.144 6.0198-8.6236 8.65-8.4879 9.0036 0.1054 0.27475 2.3265 2.1289 4.9357 4.1204 2.6092 1.9915 4.816 3.7081 4.904 3.8148 0.088 0.10666 1.384 1.1864 2.88 2.3995 3.0275 2.455 8.6013 7.1543 10.08 8.4988 0.528 0.48004 1.4943 1.3557 2.1474 1.9459 6.5643 5.9325 21.267 20.517 23.588 23.398 0.9547 1.1851 1.8519 2.1548 1.9938 2.1548 0.1418 0 0.7954 0.72 1.4524 1.6 1.52 2.036 1.6065 2.0245 4.1935-0.56 1.1892-1.188 2.9502-2.8823 3.9133-3.7651s2.3991-2.3015 3.1911-3.1526 3.5626-3.5848 6.157-6.0749c5.4612-5.2417 5.8202-5.5927 9.2134-9.0074 1.3992-1.408 3.0662-3.064 3.7044-3.68 0.6383-0.616 2.3102-2.272 3.7152-3.68 2.2687-2.2734 9.3193-9.177 11.112-10.88 1.2684-1.2051 6.577-6.5211 8.0181-8.0294 0.792-0.82886 2.3628-2.3853 3.4907-3.4588 1.1279-1.0735 3.6485-3.5358 5.6013-5.4718 1.9529-1.936 4.126-4.0278 4.8293-4.6484 0.7033-0.62061 1.9089-1.8925 2.6793-2.8265 0.7703-0.93396 2.2823-2.3955 3.36-3.2478 1.0776-0.85236 2.5354-2.2908 3.2394-3.1965 0.704-0.90574 2.432-2.6244 3.84-3.8193 1.408-1.1949 3.1257-2.8765 3.817-3.737 0.6914-0.86045 2.0475-2.2125 3.0136-3.0045s2.2004-1.9196 2.743-2.5058c2.094-2.2624 4.9036-5.081 6.5932-6.6142 0.9697-0.88 2.2946-2.248 2.9442-3.04l1.181-1.44 17.934 17.919c9.8637 9.8554 17.934 18.082 17.934 18.281 0 0.19898-0.756 0.98791-1.68 1.7532-1.6297 1.3497-3.52 3.1984-6.16 6.0245-0.704 0.7536-2.108 2.0242-3.12 2.8236-1.012 0.79942-1.84 1.5587-1.84 1.6873 0 0.44617-4.1928 4.7598-5.279 5.4311-0.6005 0.37117-2.0147 1.7831-3.1426 3.1377s-2.8985 3.1023-3.9346 3.8837c-1.0361 0.78147-2.5208 2.2215-3.2994 3.2-0.7786 0.97856-2.2704 2.4992-3.3152 3.3792-1.0447 0.88-2.4224 2.176-3.0615 2.88-1.2513 1.3785-4.647 4.7357-6.6509 6.5756-0.6802 0.62458-2.1067 2.0646-3.1699 3.2-1.0632 1.1354-2.8632 2.929-4 3.9857-1.1368 1.0567-2.7301 2.6407-3.5408 3.52-0.8106 0.87927-2.1952 2.1747-3.0768 2.8787s-1.9861 1.8122-2.4545 2.4628c-0.4683 0.6505-1.8113 2.0185-2.9844 3.04-1.1731 1.0215-2.7893 2.5623-3.5916 3.424-1.9189 2.0609-4.3267 4.4564-6.4664 6.4332-0.9525 0.88-2.3034 2.2488-3.0021 3.0419-0.6987 0.79302-2.0623 2.089-3.0303 2.88-0.968 0.79097-2.1166 1.8701-2.5525 2.3981-0.8918 1.0803-4.3543 4.5362-6.2657 6.2539-0.694 0.62361-2.126 2.0636-3.1823 3.2-1.0562 1.1364-2.8562 2.9384-4 4.0045-1.1437 1.0661-3.0833 2.9741-4.3102 4.24-1.2268 1.2659-2.3208 2.3017-2.431 2.3017-0.3474 0-1.3893 1.0608-2.7695 2.8198l-1.3338 1.6998 1.5825 2.3557c0.8704 1.2956 1.5825 2.4188 1.5825 2.4958 0 0.0771 0.6942 1.2041 1.5426 2.5044 0.8484 1.3004 2.0731 3.3004 2.7215 4.4444s1.529 2.656 1.9569 3.36c0.4278 0.704 1.2405 2.144 1.806 3.2 0.5654 1.056 1.3765 2.4727 1.8023 3.1482 1.1861 1.8813 6.2079 11.599 8.4607 16.372 0.7476 1.584 1.4742 2.928 1.6147 2.9867 0.1404 0.0587 0.2553 0.23475 0.2553 0.39126 0 0.28432 0.9133 2.4214 2.4538 5.7421 0.4491 0.968 0.9365 2.048 1.0831 2.4 0.1467 0.352 0.6473 1.504 1.1125 2.56 1.2786 2.9021 1.7035 3.8859 2.2461 5.2 0.2725 0.66 0.6325 1.45 0.8 1.7556 0.1675 0.30563 0.3045 0.77558 0.3045 1.0444s0.137 0.73872 0.3045 1.0444c0.2807 0.51219 1.0071 2.2069 1.6098 3.7556 0.8791 2.259 1.3838 3.6075 2.5751 6.88 0.7367 2.024 1.4484 3.968 1.5814 4.32 0.1329 0.352 0.4896 1.432 0.7927 2.4 0.3029 0.968 0.6669 2.048 0.8088 2.4 0.1418 0.352 0.6549 1.936 1.1402 3.52 0.4852 1.584 1.0615 3.384 1.2805 4s0.5726 1.768 0.7857 2.56 0.5886 2.0208 0.8344 2.7307 0.4469 1.6014 0.4469 1.9811c0 0.37974 0.1281 0.7696 0.2846 0.86633 0.1566 0.0968 0.3573 0.64525 0.4461 1.2189 0.089 0.57364 0.4003 1.835 0.6923 2.803 0.6628 2.1967 1.1497 4.1266 2.4222 9.6 0.5523 2.376 1.1371 4.6508 1.2995 5.0551 0.1624 0.40426 0.2953 1.1518 0.2953 1.6611 0 0.50934 0.144 1.0151 0.32 1.1238s0.3217 0.72928 0.3238 1.3789c0 0.64963 0.4341 3.0443 0.96 5.3215 0.5259 2.2772 0.9562 4.6604 0.9562 5.296 0 0.63559 0.1326 1.2924 0.2947 1.4596s0.347 1.024 0.411 1.904 0.2013 1.744 0.3053 1.92 0.2865 1.184 0.4055 2.24c0.1191 1.056 0.3598 2.712 0.5349 3.68 0.7695 4.2548 1.7192 12.224 2.0535 17.232 0.086 1.2937 0.2493 2.5014 0.362 2.6837 0.1127 0.1824 0.2625 2.0039 0.3329 4.0479 0.07 2.0439 0.2571 4.195 0.4149 4.7802 0.1578 0.58518 0.1735 1.3706 0.035 1.7454-0.1386 0.37485-0.1324 1.2142 0.014 1.8652 0.2464 1.0966 0.7238 11.179 0.65 13.725-0.04 1.3648-0.035 12.902 0.01 14.24 0.075 2.4735-0.4143 12.811-0.658 13.896-0.1507 0.67079-0.1585 1.426-0.017 1.6784 0.1412 0.25232 0.1239 1.05-0.038 1.7726-0.1624 0.72262-0.2997 2.0113-0.3052 2.8636-0.014 2.1026-0.2115 4.5697-0.7879 9.8251-0.2675 2.4394-0.4109 4.5576-0.3185 4.707 0.092 0.14944 0.032 0.52957-0.1349 0.84471-0.2505 0.47424-1.0906 5.9011-1.8224 11.773-0.4727 3.7926-1.179 8.0785-1.4239 8.64-0.1536 0.352-0.3447 1.288-0.4247 2.08s-0.4463 2.808-0.8139 4.48-0.6951 3.472-0.7279 4c-0.033 0.528-0.1579 1.104-0.2783 1.28-0.1205 0.176-0.3034 0.824-0.4067 1.44-0.177 1.0562-0.554 2.7752-1.632 7.4412-0.5731 2.4806-2.487 9.8279-3.3966 13.039-0.3739 1.32-0.7952 2.904-0.9361 3.52-0.2533 1.1074-0.4727 1.7948-0.9701 3.04-0.1406 0.352-0.5057 1.576-0.8113 2.72s-0.7535 2.5338-0.9953 3.0884c-0.2418 0.55463-0.4416 1.2026-0.444 1.44 0 0.23741-0.4419 1.6556-0.9767 3.1516s-1.2714 3.656-1.6368 4.8c-0.3655 1.144-0.7899 2.2168-0.9433 2.384s-0.2789 0.6064-0.2789 0.976-0.1243 0.8088-0.2763 0.976c-0.1519 0.1672-0.6724 1.456-1.1565 2.864-0.4842 1.408-1.0945 3.064-1.3563 3.68-0.2619 0.616-0.5979 1.408-0.7467 1.76s-0.6567 1.648-1.1288 2.88c-0.9172 2.3938-1.7368 4.3264-2.7229 6.421-0.3369 0.71559-0.6125 1.4056-0.6125 1.5334 0 0.12777-0.4451 1.1983-0.9891 2.379-0.5441 1.1807-1.3543 2.9387-1.8005 3.9067-3.1151 6.758-5.2451 11.188-6.1544 12.8-0.3475 0.616-0.9777 1.84-1.4006 2.72-1.1426 2.3778-3.7483 7.2557-5.6408 10.56-0.4032 0.704-1.3745 2.4105-2.1584 3.7922-0.7839 1.3817-1.9182 3.2828-2.5207 4.2246-0.6025 0.94189-1.0955 1.7875-1.0955 1.8791 0 0.23143-7.0571 11.402-8.8094 13.944-0.7886 1.144-2.189 3.2001-3.1122 4.569-0.9231 1.369-1.8328 2.6651-2.0215 2.8802-0.1886 0.21516-0.9751 1.3271-1.7476 2.471-0.7726 1.1439-1.483 2.1518-1.5788 2.2398-0.096 0.088-0.8131 1.024-1.5941 2.08-0.7809 1.056-2.5551 3.36-3.9427 5.12-1.3875 1.76-2.8027 3.56-3.1449 4-1.0035 1.2901-6.3027 7.7398-7.3618 8.96-0.5347 0.616-1.2464 1.4618-1.5814 1.8795-1.1705 1.4593-7.5229 8.4832-9.5856 10.599-12.332 12.648-18.419 18.847-28.285 28.802-6.3668 6.424-22.148 22.408-35.069 35.52-12.921 13.112-28.612 28.979-34.87 35.259-23.195 23.281-35.349 35.555-57.932 58.501-21.864 22.216-30.37 30.807-58.244 58.829-13.232 13.302-25.049 25.259-58.243 58.931-12.752 12.936-28.3 28.65-34.551 34.919-15.996 16.044-31.448 31.656-58.394 59.001-12.834 13.024-28.527 28.893-34.873 35.264-23.214 23.306-35.095 35.302-57.775 58.336-39.213 39.824-46.043 46.4-48.193 46.4-0.12656 0-0.67571 0.3266-1.2203 0.7258s-1.9262 1.1367-3.0702 1.6389c-1.144 0.5021-2.3229 1.0351-2.6198 1.1842-2.6393 1.3262-12.462 4.0205-13.137 3.6034-0.1328-0.082-0.69427 0.1111-1.2477 0.4292-0.75376 0.4333-1.0416 0.4781-1.1473 0.1785-0.16736-0.4745-1.0478-0.5417-1.0478-0.08 0 0.5034-10.138 0.4252-10.373-0.08-0.14931-0.32-0.224-0.32-0.37331 0-0.25031 0.5363-1.1558 0.4862-1.666-0.092zm17.549-140.93c5.0249-5.0259 19.557-19.722 32.293-32.658s28.317-28.704 34.624-35.04 16.769-16.848 23.249-23.36c6.48-6.512 22.204-22.424 34.943-35.36 25.175-25.566 40.295-40.839 57.93-58.517 6.2559-6.2714 21.8-21.987 34.544-34.923 22.95-23.297 35.645-36.133 58.242-58.886 25.602-25.779 36.025-36.314 58.248-58.874 21.666-21.995 28.406-28.8 58.082-58.645 11.357-11.422 24.986-25.225 43.835-44.395 11.447-11.643 14.8-15.241 19.53-20.96 1.1646-1.408 2.4295-2.9321 2.8111-3.3869 0.3815-0.45482 0.9817-1.2268 1.3337-1.7155 0.352-0.4887 0.7922-1.0526 0.9781-1.2531 0.9626-1.0377 6.2219-8.167 6.2219-8.4341 0-0.17117 0.2816-0.56605 0.6258-0.87754 0.3442-0.31148 1.4039-1.7378 2.3549-3.1696 3.3525-5.0474 6.6193-10.105 6.6193-10.248 0-0.0795 0.72-1.3054 1.6-2.7242 0.88-1.4189 1.6-2.6574 1.6-2.7522 0-0.0949 0.3489-0.70937 0.7754-1.3656 1.392-2.142 7.41-13.864 9.648-18.793 0.3995-0.88 1.0978-2.4059 1.5515-3.3909 0.4538-0.98499 0.8251-1.891 0.8251-2.0133 0-0.12237 0.4309-1.144 0.9575-2.2704 0.5266-1.1264 1.2595-2.8844 1.6285-3.9067 0.3691-1.0223 1.111-2.9387 1.6487-4.2587s1.3083-3.408 1.7124-4.64c0.4042-1.232 1.0159-3.032 1.3594-4 1.0104-2.8476 2.2965-7.1602 2.2949-7.696 0-0.2728 0.1227-0.6328 0.2744-0.8s0.4471-0.952 0.6566-1.744c1.516-5.7323 2.9858-11.588 3.2128-12.8 0.1485-0.792 0.4856-2.232 0.7492-3.2s0.5829-2.552 0.7096-3.52c0.1266-0.968 0.5195-3.128 0.8729-4.8s0.7105-3.904 0.7934-4.96c0.083-1.056 0.2762-2.073 0.4295-2.2599 0.2425-0.29571 0.5398-2.5148 0.7689-5.7401 0.038-0.528 0.1646-1.32 0.2824-1.76s0.2843-1.952 0.3701-3.36c0.086-1.408 0.2952-3.856 0.4655-5.44s0.2362-3.2543 0.1466-3.7117c-0.09-0.45744 0.069-1.853 0.3532-3.1012 0.3407-1.4977 0.4154-2.4663 0.2196-2.8483-0.1735-0.33856-0.1892-1.5088-0.038-2.8189 0.3493-3.0229 0.3393-13.228-0.016-15.984-0.1869-1.4514-0.173-2.436 0.04-2.834 0.2265-0.42307 0.2097-1.0649-0.055-2.0958-0.2095-0.81735-0.4354-2.782-0.502-4.366-0.067-1.584-0.1909-3.528-0.2763-4.32-0.085-0.792-0.2361-2.664-0.3352-4.16-0.099-1.496-0.3325-3.584-0.5188-4.64-0.1864-1.056-0.4005-2.8433-0.4759-3.9717-0.075-1.1284-0.2594-2.2084-0.4088-2.4s-0.2932-1.0683-0.3195-1.9483c-0.026-0.88-0.2716-2.3741-0.5452-3.3202-0.2735-0.94608-0.5051-2.2801-0.5146-2.9644-0.01-0.68438-0.1441-1.3228-0.2994-1.4188-0.1552-0.0959-0.2822-0.70685-0.2822-1.3576 0-0.65079-0.1515-1.6863-0.3367-2.3011s-0.4578-1.7659-0.6058-2.5579c-0.4931-2.6387-2.289-9.7014-3.7428-14.72-0.7903-2.728-1.635-5.68-1.8772-6.56-0.2421-0.88-0.8227-2.608-1.2902-3.84s-0.9201-2.6-1.0057-3.04c-0.086-0.44-0.5058-1.699-0.9337-2.7979-0.4279-1.0988-1.1357-2.9348-1.573-4.08-1.8493-4.8439-2.5083-6.4944-3.2307-8.0909-0.4203-0.92883-0.7642-1.7657-0.7642-1.8598 0-0.34454-4.7996-10.558-6.0014-12.771-0.1912-0.352-0.7937-1.6083-1.3389-2.7918-1.4117-3.0645-1.7532-3.1511-3.8765-0.98355-0.9588 0.97875-2.2767 2.1722-2.9288 2.6522s-1.9344 1.7689-2.8497 2.8643c-0.9152 1.0953-2.6323 2.8077-3.8158 3.8052-1.1835 0.9975-2.7505 2.5722-3.4823 3.4994-0.7318 0.92714-2.3691 2.5497-3.6385 3.6057-1.2694 1.056-3.0281 2.7517-3.9081 3.7682-0.88 1.0165-2.62 2.706-3.8667 3.7543-1.2466 1.0483-2.6544 2.4383-3.1283 3.0888-0.4739 0.6505-1.8132 2.0185-2.9761 3.04-2.9063 2.5528-3.9081 3.5523-5.3421 5.33-0.6783 0.84084-2.1183 2.2261-3.2 3.0783-1.0817 0.85222-2.7258 2.4697-3.6535 3.5944-0.9276 1.1247-2.5953 2.7581-3.7058 3.6298-1.1106 0.87165-2.501 2.208-3.0898 2.9696-0.5887 0.76163-2.0765 2.2736-3.3062 3.36-1.2296 1.0864-2.8242 2.6177-3.5436 3.4029-1.7833 1.9467-3.845 3.9928-6.1384 6.0923-1.0574 0.968-2.5631 2.48-3.346 3.36s-2.2155 2.2469-3.1835 3.0375c-0.968 0.79063-1.9636 1.7266-2.2124 2.08-0.5779 0.82074-4.7247 4.9249-5.8239 5.7641-0.46 0.35116-1.5853 1.5434-2.5008 2.6493-0.9153 1.106-2.5754 2.7268-3.6889 3.6019-1.1134 0.87504-2.8227 2.5621-3.7984 3.7491-0.9756 1.187-2.523 2.7341-3.4386 3.4381-0.9157 0.704-2.0366 1.712-2.4911 2.24-0.6897 0.80141-3.3961 3.4774-7.039 6.96-0.4142 0.396-1.7143 1.728-2.889 2.96-1.1748 1.232-2.9965 3.032-4.0484 4s-2.4878 2.3841-3.191 3.1469c-2.2851 2.4788-9.5676 9.5951-10.762 10.516-0.6397 0.49341-2.0422 1.9315-3.1167 3.1958s-2.783 2.938-3.7969 3.7192c-1.0138 0.78128-2.5418 2.2929-3.3956 3.3592-0.8538 1.0663-2.3613 2.5606-3.3502 3.3208-0.9888 0.7601-2.2342 1.8846-2.7676 2.4989-0.5335 0.61431-2.1219 2.2282-3.5299 3.5865s-3.2029 3.1597-3.9887 4.0031c-0.7858 0.84343-2.4368 2.4695-3.6691 3.6135-1.2322 1.144-2.8933 2.7925-3.6913 3.6634s-2.3648 2.4549-3.4818 3.52c-1.8825 1.795-8.9115 8.5831-10.786 10.417-0.4499 0.44-1.8704 1.88-3.1567 3.2s-2.9703 2.9842-3.7424 3.6982c-0.772 0.71402-2.1415 2.082-3.0433 3.04-0.9018 0.95795-2.7018 2.7498-4 3.9818s-3.0748 3.0171-3.948 3.9669c-0.8731 0.94983-2.1584 2.1406-2.8563 2.646-0.6978 0.5055-2.0265 1.8378-2.9527 2.9607-0.9263 1.1229-2.3769 2.5955-3.2237 3.2724s-2.3317 2.0923-3.2997 3.1452-2.5393 2.6377-3.4919 3.5216c-1.5177 1.4083-8.6439 8.3162-10.661 10.334-0.3998 0.40003-2.023 2.0078-3.607 3.5729-1.584 1.5651-3.4552 3.4698-4.1582 4.2327-0.7031 0.76291-2.1921 2.2511-3.3089 3.3071s-3.8085 3.648-5.9814 5.76c-2.173 2.112-4.3306 4.2-4.7947 4.64-0.4642 0.44-1.9706 1.952-3.3477 3.36s-3.1305 3.1424-3.8964 3.8542c-0.766 0.71184-2.1979 2.1518-3.1821 3.2-0.9841 1.0482-2.7841 2.848-4 3.9995-1.2158 1.1516-2.9306 2.8639-3.8106 3.8052s-2.176 2.1332-2.88 2.6487-1.8661 1.6835-2.5825 2.5956c-0.7163 0.91207-2.1505 2.378-3.1869 3.2575-1.0365 0.87955-2.5383 2.3092-3.3375 3.1771-0.79917 0.86784-2.2968 2.3798-3.328 3.36-1.0312 0.98013-3.7261 3.5821-5.9886 5.7821-2.2625 2.2-4.4867 4.36-4.9427 4.8s-1.8708 1.88-3.1441 3.2-2.9573 2.9875-3.7423 3.7054c-0.78505 0.71798-2.2946 2.23-3.3546 3.36-1.06 1.13-2.716 2.7746-3.68 3.6546-0.964 0.88-2.5447 2.45-3.5127 3.4889-0.968 1.0389-2.4497 2.4372-3.2927 3.1073-0.84298 0.67012-2.0838 1.9156-2.7574 2.7678-0.6736 0.85219-2.1352 2.3339-3.2479 3.2927-2.3755 2.0468-3.4341 3.093-5.5131 5.4485-0.84211 0.95408-2.2101 2.2263-3.04 2.827s-2.1438 1.8968-2.9197 2.88c-0.77594 0.98323-2.2848 2.5077-3.3531 3.3877-1.0683 0.88-2.4494 2.1711-3.0692 2.8691-0.6198 0.69801-2.2069 2.315-3.5269 3.5933-3.7365 3.6184-4.0658 3.9444-6.5663 6.4976-1.2927 1.32-3.1189 3.12-4.0583 4-0.93936 0.88-2.2812 2.2537-2.9817 3.0526-0.70057 0.79891-2.0916 2.0949-3.0913 2.88-0.99965 0.78508-2.2438 2.0163-2.7648 2.736-0.52096 0.71974-1.9325 2.1597-3.1367 3.2-1.2042 1.0403-2.7681 2.5269-3.4752 3.3036-1.7593 1.9322-4.1842 4.3537-6.2766 6.2678-0.96195 0.88-2.327 2.2608-3.0334 3.0684-0.7064 0.80762-2.1606 2.1756-3.2316 3.04-1.071 0.86442-2.5281 2.3077-3.238 3.2072-0.70996 0.89959-2.1275 2.3396-3.15 3.2-1.0225 0.86045-2.511 2.2745-3.3076 3.1423-0.79667 0.86784-2.2972 2.3798-3.3345 3.36-2.8411 2.6846-5.026 4.8675-6.2857 6.2799-0.62246 0.69788-1.918 1.9154-2.879 2.7055-0.96099 0.79015-1.9558 1.7246-2.2107 2.0766-0.94166 1.3004-4.6004 4.9436-5.7986 5.7738-0.68012 0.47133-1.8157 1.624-2.5235 2.5615-0.70784 0.9375-2.4771 2.7186-3.9317 3.958s-3.2928 3.0212-4.0848 3.9597c-0.792 0.93844-2.232 2.3401-3.2 3.1149-0.968 0.77476-2.192 1.9176-2.72 2.5397-0.97478 1.1484-3.5856 3.7683-6.4308 6.4531-0.86304 0.81437-2.4514 2.3984-3.5297 3.52-1.0783 1.1217-2.7343 2.7594-3.68 3.6394-0.9457 0.88-2.2954 2.252-2.9994 3.0489-0.704 0.79689-2.0685 2.0929-3.0322 2.88-0.96368 0.78707-2.0338 1.7911-2.378 2.2311-0.70973 0.90723-4.4812 4.6398-6.6284 6.56-0.78723 0.704-1.8566 1.8356-2.3764 2.5148-0.51978 0.67914-2.025 2.1416-3.345 3.25-1.32 1.1084-3.0412 2.7886-3.825 3.7339-0.78374 0.94531-2.1365 2.2908-3.0062 2.99-0.86966 0.69923-2.1004 1.8384-2.735 2.5315-1.5964 1.7436-4.7106 4.8542-6.6074 6.6-0.87254 0.80304-2.4525 2.387-3.511 3.52-1.0585 1.1329-2.7166 2.7799-3.6846 3.6599s-2.55 2.4651-3.5155 3.5225c-0.96547 1.0573-2.3423 2.3533-3.0597 2.88-0.71737 0.52662-2.2077 2.0104-3.3119 3.2972-1.1042 1.2868-2.9086 3.0477-4.0097 3.913-1.1012 0.86537-2.3468 2.0826-2.7681 2.705s-1.6905 1.9576-2.8204 2.967c-2.4669 2.2038-4.1178 3.8213-6.2909 6.1635-0.89388 0.96345-2.3505 2.3277-3.2368 3.0317s-1.9948 1.8122-2.4631 2.4628c-0.46832 0.6505-1.8112 2.0185-2.9841 3.04-1.1729 1.0215-2.7892 2.57-3.5916 3.4412-1.694 1.839-4.0162 4.1474-6.4569 6.4183-0.94716 0.8812-2.4658 2.4194-3.3748 3.4182s-2.2661 2.2603-3.0158 2.8033c-0.74966 0.5431-1.7261 1.4529-2.1699 2.0218-0.44377 0.5689-1.9667 2.1434-3.3842 3.4988-3.306 3.1612-3.667 3.5205-6.0432 6.0156-1.0895 1.144-2.9154 2.9496-4.0575 4.0125-1.1422 1.0629-2.9651 2.8725-4.051 4.0212-1.0859 1.1488-2.4539 2.4181-3.04 2.8207-0.58608 0.4026-1.5628 1.3812-2.1705 2.1746s-1.961 2.1825-3.0073 3.0868c-1.0463 0.9043-2.5652 2.3475-3.3751 3.207-2.099 2.2275-4.4755 4.5859-6.4867 6.4372-0.956 0.88-2.2548 2.2123-2.8862 2.9607-0.63139 0.7484-1.9922 2.0428-3.0239 2.8765-1.0318 0.8338-2.2281 1.9495-2.6586 2.4794s-1.9424 2.0724-3.36 3.4278c-3.9145 3.743-3.9406 3.7688-6.3984 6.3356-1.2639 1.32-3.0813 3.1247-4.0385 4.0106-0.95725 0.8858-2.6442 2.5618-3.7487 3.7243-1.1046 1.1627-2.4726 2.4421-3.04 2.8432-0.56749 0.4012-1.7606 1.6052-2.6514 2.6756-0.89079 1.0705-2.6417 2.8103-3.8908 3.8663-1.2492 1.056-2.8657 2.6786-3.5924 3.6058-0.72663 0.9271-2.3598 2.5409-3.6292 3.5862-1.2694 1.0452-2.932 2.6867-3.6946 3.6476-0.76262 0.961-2.1893 2.3712-3.1703 3.1338-0.98106 0.7626-2.2291 1.8807-2.7734 2.4846-3.0043 3.3331-4.9214 5.2544-5.7042 5.7169-1.2656 0.7476-5.4342 5.7649-5.1804 6.2351 0.11584 0.2145 4.0702 4.278 8.7876 9.03 10.249 10.324 27.478 27.695 43.522 43.882 6.4321 6.489 22.194 22.454 35.027 35.478 32.852 33.342 41.699 42.082 42.349 41.836 0.29107-0.1101 4.6405-4.3122 9.6654-9.3381zm-173.32-159.68c0.86743-0.8015 3.4186-3.2572 5.6692-5.4572 2.2506-2.2 4.4718-4.36 4.936-4.8 0.46419-0.44 1.8031-1.808 2.9754-3.04s2.9214-2.96 3.8868-3.84c0.9655-0.88 2.4754-2.3979 3.3554-3.3731s2.2389-2.2712 3.0197-2.88c0.78087-0.6088 1.7876-1.5389 2.2372-2.0669 1.0714-1.2581 4.647-4.8213 6.265-6.2432 0.70297-0.6177 1.9151-1.8919 2.6936-2.8315 0.77852-0.9396 2.1886-2.2921 3.1336-3.0055 0.94496-0.7135 2.5982-2.3193 3.6738-3.5685 1.0756-1.2492 2.8625-2.9961 3.971-3.882 1.1084-0.8859 2.4331-2.1874 2.9436-2.8923 0.5106-0.7048 1.9108-2.14 3.1117-3.1892 1.2009-1.0493 2.7701-2.551 3.4871-3.337 1.5749-1.7266 3.8962-4.0368 6.4491-6.4181 1.042-0.9721 2.7983-2.7201 3.9028-3.8844 1.1046-1.1644 2.4726-2.4453 3.04-2.8464 0.56749-0.4012 1.7606-1.6052 2.6514-2.6756 0.89078-1.0705 2.6385-2.8103 3.8839-3.8663 1.2453-1.056 2.9855-2.7956 3.867-3.8659 0.8815-1.0702 2.5191-2.675 3.639-3.5662 1.1199-0.89117 2.7152-2.4635 3.545-3.4941 0.82986-1.0306 2.5051-2.6658 3.7228-3.6338 1.2177-0.968 2.4393-2.1319 2.7148-2.5865 0.27545-0.45456 1.6229-1.8519 2.9944-3.1053 2.9033-2.6533 3.1735-2.9169 6.4663-6.3082 1.3671-1.408 3.1925-3.208 4.0564-4 0.86394-0.792 2.1886-2.16 2.9438-3.04 0.7551-0.88 2.2108-2.248 3.2349-3.04s2.1875-1.9061 2.5854-2.4757c0.39785-0.56963 1.8221-2.039 3.1651-3.2653 3.0377-2.7739 3.4441-3.1706 6.0838-5.939 1.1748-1.232 2.9958-3.0389 4.0469-4.0153 1.051-0.97641 2.631-2.5252 3.511-3.4417 0.88-0.91651 3.6535-3.6456 6.1633-6.0647 5.2898-5.0985 5.7597-5.5624 8.6684-8.5583 1.1961-1.232 2.8844-2.8888 3.7516-3.6819 0.86723-0.79302 2.2968-2.2053 3.1768-3.1384 1.2757-1.3526 6.4838-6.4387 12.021-11.74 0.36771-0.352 1.7028-1.72 2.9669-3.04 1.2641-1.32 3.0889-3.12 4.055-4s2.3732-2.3367 3.1268-3.2371c0.7536-0.90038 2.1361-2.1964 3.0722-2.88 0.93609-0.68361 2.0851-1.7722 2.5533-2.419 0.46826-0.64682 1.8822-2.0868 3.1421-3.2 1.2599-1.1132 2.8783-2.6639 3.5965-3.4462 1.1482-1.2506 2.3708-2.4609 6.8755-6.8066 0.59933-0.5782 2.1563-2.1313 3.4599-3.4513 2.1711-2.1984 9.6552-9.521 11.283-11.04 0.37731-0.352 1.974-1.936 3.5482-3.52s3.3844-3.384 4.0227-4c0.63834-0.616 2.2332-2.2 3.5441-3.52 1.3109-1.32 4.2408-4.2 6.5108-6.4 2.27-2.2 4.4238-4.288 4.7863-4.64 0.36247-0.352 1.7033-1.72 2.9796-3.04 1.2763-1.32 2.9629-2.976 3.7479-3.68 0.78506-0.704 2.2604-2.216 3.2787-3.36 1.0182-1.144 2.5406-2.5746 3.3832-3.1791 0.84249-0.60452 1.9168-1.6347 2.3874-2.2894 0.47056-0.65462 1.9572-2.176 3.3036-3.3809 1.3465-1.2049 2.967-2.7599 3.6013-3.4557 1.3523-1.4833 4.4895-4.5943 6.4752-6.4211 0.76889-0.70733 2.1931-2.1473 3.165-3.2 0.97184-1.0526 2.7748-2.8499 4.0065-3.9939 1.2317-1.144 2.7739-2.6764 3.427-3.4052 0.65315-0.72887 1.799-1.8089 2.5464-2.4 0.74739-0.59117 1.7941-1.5734 2.326-2.1828 1.0335-1.1841 3.7918-3.9433 6.6026-6.605 0.94845-0.89811 2.62-2.5685 3.7146-3.712 1.0946-1.1434 2.4626-2.4089 3.04-2.8122 0.57744-0.4032 1.6847-1.5408 2.4607-2.528 0.77594-0.98717 2.2848-2.5149 3.3531-3.3949 1.0683-0.88 2.4494-2.1674 3.0692-2.8608 1.4017-1.5682 4.5586-4.7217 6.4324-6.4253 0.77802-0.70733 2.2097-2.1473 3.1815-3.2 0.97184-1.0526 2.7718-2.855 4-4.0053s2.881-2.7929 3.673-3.6502c0.792-0.85738 2.1297-2.1065 2.9727-2.7759 0.84298-0.66937 2.0906-1.9228 2.7724-2.7853 0.68183-0.86256 2.0765-2.2723 3.0992-3.1327 1.0228-0.86045 2.5112-2.2695 3.3076-3.1312 1.8317-1.9818 4.2358-4.3803 6.4482-6.4332 0.94836-0.88 2.4736-2.4192 3.3894-3.4205s2.4628-2.4098 3.4378-3.1301c0.97497-0.72026 1.7727-1.4315 1.7727-1.5805 0-0.47091 4.1396-4.7641 5.2633-5.4586 0.5919-0.36579 1.8996-1.6715 2.9059-2.9015 1.0063-1.23 2.7839-2.9882 3.9503-3.907 1.1663-0.91878 2.3306-1.961 2.5874-2.3162 0.90393-1.2501 3.7098-4.1129 5.1741-5.279 0.81453-0.6487 2.3703-2.2128 3.4573-3.4757 1.087-1.2629 2.7617-2.8892 3.7215-3.6139 0.95984-0.72467 2.4576-2.2242 3.3284-3.3323 0.87082-1.1081 2.5617-2.8 3.7575-3.7599 1.1958-0.95988 2.9662-2.6775 3.9342-3.8169 0.968-1.1395 2.732-2.8384 3.92-3.7755s2.16-1.7982 2.16-1.9135c0-0.45142 3.683-4.2468 5.4124-5.5776 1.0049-0.77325 2.4373-2.1968 3.1831-3.1636s2.3929-2.6255 3.6603-3.6863c1.2673-1.0607 3.0962-2.8502 4.0642-3.9765 0.968-1.1264 2.552-2.6804 3.52-3.4535 0.968-0.77305 2.5415-2.3293 3.4967-3.4584 0.9552-1.129 2.6909-2.8322 3.8571-3.785 1.1662-0.95273 2.7434-2.513 3.505-3.4674 0.7615-0.95437 1.9778-2.2059 2.7029-2.7811s3.1386-2.8466 5.3635-5.0476c2.2248-2.201 4.4183-4.3618 4.8744-4.8018s2.076-2.0398 3.5998-3.555c1.5238-1.5153 3.2674-3.2433 3.8746-3.84 0.6073-0.59674 2.0021-2.021 3.0996-3.165 1.0974-1.144 2.7835-2.8 3.7468-3.68s2.3203-2.2554 3.0156-3.0563c0.6952-0.80099 2.0995-2.1346 3.1207-2.9635s2.5809-2.3774 3.4661-3.441c0.8851-1.0636 2.6416-2.7832 3.9033-3.8213 1.2616-1.0381 2.8699-2.6202 3.5739-3.5158 0.704-0.89561 1.928-2.1579 2.72-2.805 1.4827-1.2116 3.1337-2.8325 5.92-5.8122 0.88-0.94109 2.104-2.0822 2.72-2.5358 0.616-0.4536 1.5493-1.3342 2.0739-1.9569 0.5247-0.62269 2.1087-2.2326 3.52-3.5776 1.4114-1.345 3.2141-3.145 4.0061-4 0.792-0.85501 2.3718-2.4186 3.5107-3.4746s3.4785-3.3761 5.199-5.1558 3.6995-3.6316 4.3976-4.1154c0.6981-0.48381 1.8546-1.6549 2.57-2.6025 0.7155-0.94759 2.4127-2.6711 3.7718-3.83 1.359-1.1589 3.1351-2.9271 3.947-3.9295 0.8118-1.0023 2.4678-2.636 3.68-3.6305 1.2121-0.99443 2.8497-2.5843 3.6389-3.533 0.7893-0.94871 2.3961-2.5265 3.5707-3.5062s2.9048-2.6865 3.845-3.7929c0.9401-1.1064 2.7507-2.8876 4.0235-3.958 1.2728-1.0705 2.8966-2.7029 3.6084-3.6276s2.2092-2.4003 3.3277-3.2793c1.1184-0.87894 2.8487-2.553 3.845-3.7201 0.9963-1.1671 2.6335-2.7853 3.6381-3.5959 1.0046-0.81066 2.1146-1.8327 2.4666-2.2711 1.4439-1.7986 4.4502-4.8156 5.576-5.5957 0.6614-0.45837 1.9433-1.7577 2.8486-2.8874 0.9053-1.1297 2.6433-2.8598 3.8622-3.8447 1.219-0.98489 2.8603-2.5729 3.6474-3.529 0.787-0.95606 2.3294-2.4982 3.4274-3.4269 1.098-0.92874 2.3735-2.1206 2.8346-2.6486 0.8466-0.96957 3.9316-4.0231 6.4921-6.426 0.7655-0.71827 2.2652-2.2303 3.3329-3.36 1.0676-1.1297 2.7236-2.7783 3.68-3.6634 0.9563-0.88516 2.5608-2.4933 3.5656-3.5736 1.0047-1.0804 2.3727-2.3694 3.04-2.8645 0.6672-0.49514 1.5645-1.335 1.9937-1.8664 0.4294-0.53136 1.9414-2.0634 3.36-3.4044 1.4188-1.341 3.2231-3.141 4.0097-4 0.7867-0.85891 2.3496-2.4257 3.4733-3.4817 1.1236-1.056 3.8812-3.72 6.128-5.92s4.2371-4.144 4.423-4.32c0.1858-0.176 1.8081-1.7765 3.6051-3.5566 1.7969-1.7801 3.6166-3.5801 4.0437-4 0.4271-0.41984 1.7642-1.7714 2.9712-3.0034s3.5735-3.608 5.2589-5.28c3.9584-3.9269 4.1872-3.4592-7.4934-15.316-2.376-2.4117-4.5553-4.6684-4.8429-5.0147-0.2876-0.34634-1.8587-1.8537-3.4914-3.3497s-3.4328-3.152-4.0001-3.68c-0.5674-0.528-1.7108-1.536-2.541-2.24-0.8303-0.704-1.7469-1.5102-2.0371-1.7916-0.2901-0.28135-1.7645-1.5054-3.2763-2.72-1.5118-1.2146-3.1678-2.5485-3.68-2.9641-1.3275-1.0773-8.0085-6.1503-9.2054-6.9897-0.5532-0.388-1.1611-0.83859-1.3509-1.0013s-0.9818-0.69482-1.76-1.1824c-0.7782-0.48759-1.4869-0.97773-1.5749-1.0892-0.088-0.11145-0.952-0.69472-1.92-1.2961-0.968-0.60141-2.1671-1.4247-2.6647-1.8296-2.088-1.699-1.4699-2.1449-13.23 9.5453-5.9086 5.8733-12.209 12.119-14.001 13.879-3.8867 3.8173-26.895 26.582-60.157 59.52-13.33 13.2-26.728 26.448-29.774 29.44-3.0459 2.992-15.864 15.664-28.485 28.16-12.621 12.496-26.31 26.032-30.42 30.08-4.1103 4.048-17.813 17.599-30.45 30.113-12.637 12.514-25.449 25.186-28.471 28.16-3.0215 2.9738-15.384 15.199-27.473 27.167s-24.901 24.64-28.472 28.16c-3.5709 3.52-16.891 16.696-29.6 29.28s-25.528 25.256-28.486 28.16c-2.9577 2.904-15.77 15.576-28.471 28.16s-25.423 25.162-28.269 27.951-11.081 10.925-18.299 18.08c-21.396 21.21-65.562 64.907-69.233 68.499-3.1054 3.0375-34.3 33.894-69.464 68.713-7.6665 7.591-16.551 16.375-19.744 19.52-26.785 26.386-44.584 44.157-44.501 44.431 0.10694 0.3527 4.6541 5.0128 23.042 23.614 26.025 26.327 26.957 27.24 27.488 26.919 0.22864-0.1383 1.1254-0.9072 1.9929-1.7086zm-120-129.59c3.3543-3.329 8.5467-8.4587 11.539-11.399 5.6287-5.5319 23.155-22.864 47.848-47.318 23.258-23.032 63.787-63.117 68.952-68.195 2.64-2.5961 15.528-15.341 28.64-28.323 13.112-12.982 26.739-26.462 30.282-29.957 7.517-7.4148 46.504-45.978 66.65-65.926 7.6717-7.5962 16.469-16.292 19.549-19.324s15.939-15.753 28.575-28.269c12.636-12.516 25.902-25.636 29.48-29.156 3.578-3.52 16.394-16.192 28.481-28.16 12.087-11.968 24.957-24.694 28.6-28.281 3.6434-3.5863 17.547-17.338 30.898-30.56 13.35-13.222 26.598-26.319 29.44-29.106 2.8417-2.7866 11.078-10.923 18.303-18.08 34.01-33.692 63.684-63.056 68.126-67.414 21.148-20.748 44.326-43.876 44.237-44.143-0.4753-1.4259-15.786-1.7364-32.379-0.6567-1.056 0.0687-3.0151 0.18329-4.3537 0.25465-1.3385 0.0713-2.5629 0.2096-2.7209 0.30723-0.1579 0.0976-1.6548 0.28295-3.3263 0.41178-4.1485 0.31974-4.5677 0.3649-5.1191 0.55094-0.264 0.0891-2.424 0.41463-4.8 0.7234-2.376 0.30873-4.4568 0.68512-4.624 0.83638s-0.8152 0.27693-1.44 0.27923c-0.6248 3e-3 -2.504 0.30035-4.176 0.66231-10.382 2.2476-11.969 2.6157-14.4 3.3411-0.968 0.28889-2.12 0.59308-2.56 0.67603-2.6689 0.50301-20.066 6.1741-20.96 6.8324-0.176 0.12967-0.72128 0.33165-1.2117 0.4489-0.49047 0.11721-1.7865 0.62137-2.88 1.1203-1.0936 0.49894-2.3483 1.0187-2.7883 1.155-0.44 0.13635-1.592 0.6048-2.56 1.041-3.4942 1.5748-5.2917 2.3752-5.92 2.636-1.5996 0.66416-6.5773 3.1121-8.2708 4.0674-1.0289 0.58038-2.0454 1.0553-2.2588 1.0553s-1.2436 0.51747-2.2892 1.15c-1.6612 1.0048-3.9603 2.3233-6.0612 3.4759-1.0209 0.56009-5.8986 3.4804-6.8304 4.0894-0.46727 0.30538-1.1376 0.68676-1.4896 0.84749-1.3039 0.59539-18.127 12.382-19.9 13.943-0.20902 0.18393-0.85702 0.71331-1.44 1.1764-5.1974 4.1282-9.5536 7.8004-12.287 10.358-0.56432 0.528-2.6537 2.472-4.6431 4.32-1.9894 1.848-3.9125 3.7115-4.2735 4.141-0.36099 0.42957-5.7801 5.9016-12.042 12.16-14.847 14.837-57.877 58.436-59.008 59.787-1.3504 1.6136-8.396 7.4316-8.9997 7.4316-0.12989 0-0.47178 0.21322-0.75974 0.47382-0.70077 0.63418-7.9894 4.3262-8.5406 4.3262-0.23917 0-0.6849 0.13702-0.99053 0.30451-0.94867 0.51987-2.7583 1.2291-3.5956 1.4092-2.5496 0.54838-4.1162 0.92265-5.0135 1.1978-0.55747 0.17091-1.7095 0.32224-2.56 0.33626-0.85056 0.0141-1.7274 0.17139-1.9486 0.34976-0.49159 0.39651-12.933 0.44486-13.562 0.0527-0.23962-0.14941-0.86768-0.3055-1.3957-0.34691-2.6254-0.20586-7.4989-1.2838-9.28-2.0525-0.352-0.15194-1.3485-0.50957-2.2145-0.79472-3.6228-1.193-9.7391-4.4647-12.825-6.8606-3.9883-3.096-1.2945-0.44375-30.392-29.924-19.553-19.81-37.461-37.923-48.517-49.073-1.158-1.1677-2.7364-2.6362-6.8509-6.3737-1.232-1.1191-2.744-2.5036-3.36-3.0767-1.7697-1.6463-8.1488-6.8562-12-9.8004-1.936-1.4801-3.568-2.8029-3.6267-2.9396-0.0587-0.13667-0.27616-0.24851-0.48329-0.24851-0.20711 0-0.74419-0.34086-1.1935-0.75747-0.76531-0.70963-1.4019-1.1635-4.6165-3.291-0.704-0.46595-1.352-0.94163-1.44-1.0571-0.51981-0.68202-12.704-8.3344-13.27-8.3344-0.24013 0-0.48458-0.12259-0.54326-0.27238-0.11335-0.28954-2.0512-1.4715-4.4267-2.7001-0.792-0.4096-2.016-1.1069-2.72-1.5495-0.704-0.44263-4.016-2.1404-7.36-3.7728-8.2989-4.0512-9.2567-4.5053-9.5023-4.5053-0.11719 0-1.1231-0.41741-2.2354-0.92755-7.7223-3.5419-26.291-10.084-31.302-11.029-0.44-0.0829-1.592-0.39011-2.56-0.68266-1.9457-0.58797-2.5518-0.73373-7.2-1.7315-1.76-0.37779-3.9234-0.90214-4.8076-1.1652-0.88419-0.26308-2.1503-0.49869-2.8135-0.52365-0.6632-0.025-1.2803-0.16576-1.3712-0.31296-0.091-0.1472-0.87888-0.26765-1.7509-0.26765s-1.8355-0.14013-2.1411-0.31139c-0.71907-0.40298-11.268-1.9067-14.796-2.1092-1.496-0.0859-2.936-0.24484-3.2-0.35332s-1.416-0.25401-2.56-0.32345c-1.144-0.0694-3.016-0.1889-4.16-0.26547-6.2921-0.42119-9.1764-0.51898-16-0.54237-4.136-0.0141-9.248 0.0778-11.36 0.20429-7.1106 0.42604-7.9934 0.47699-10.082 0.58188-1.145 0.0575-2.2327 0.1978-2.417 0.31172s-1.6955 0.30476-3.3582 0.42406c-1.6627 0.11933-3.4935 0.25085-4.0686 0.29226-0.57504 0.0414-1.139 0.16883-1.2533 0.28313-0.1143 0.11431-0.65181 0.21085-1.1945 0.21456-0.54266 4e-3 -2.6427 0.29751-4.6667 0.6529-2.024 0.35536-4.256 0.71427-4.96 0.79763-1.1758 0.13917-4.4188 0.7969-9.28 1.8821-7.9097 1.7657-11.126 2.5774-15.2 3.8365-1.32 0.40791-3.264 0.9928-4.32 1.2998-3.4622 1.0065-11.19 3.7066-11.502 4.0188-0.16804 0.16804-0.55524 0.30554-0.86045 0.30554-0.47632 0-1.4353 0.3543-5.2371 1.9348-0.352 0.14633-2.3888 0.98899-4.5262 1.8725-6.1249 2.5318-9.6933 4.2315-18.514 8.818-1.76 0.91517-3.704 1.9532-4.32 2.3066s-1.768 1.0061-2.56 1.4503c-2.1027 1.1793-4.3912 2.5551-6.4646 3.8863-1.0035 0.64428-1.8907 1.1714-1.9715 1.1714-0.70297 0-18.556 12.656-21.644 15.343-1.7998 1.5663-2.1726 1.8683-2.6376 2.1366-0.55098 0.31795-2.9763 2.3617-4.5105 3.8008-0.56288 0.528-1.7278 1.536-2.5886 2.24-3.5011 2.8632-17.112 16.254-19.721 19.401-0.52945 0.63879-1.426 1.6622-1.9924 2.2741-4.006 4.3283-9.3324 10.948-14.358 17.844-4.5496 6.2428-13.005 19.205-13.673 20.96-0.067 0.176-0.29771 0.53603-0.51278 0.80003-0.21506 0.264-0.96976 1.56-1.6771 2.88s-1.6162 2.976-2.0197 3.68c-0.84177 1.4687-2.5715 4.9317-4.3156 8.64-0.66222 1.408-1.3783 2.776-1.5912 3.04-0.21296 0.264-0.85544 1.6219-1.4277 3.0175-0.5723 1.3956-1.1575 2.7636-1.3004 3.04-0.4693 0.90736-1.1117 2.4735-3.816 9.3025-0.73179 1.848-1.4456 3.648-1.5863 4-0.51097 1.2787-2.7936 8.2079-4.3748 13.28-0.46636 1.496-0.97011 3.08-1.1195 3.52-0.50958 1.5013-2.2155 8.0469-2.7105 10.4-0.11107 0.528-0.39012 1.608-0.62012 2.4s-0.66894 2.88-0.97543 4.64c-0.30648 1.76-0.68187 3.3368-0.8342 3.504s-0.27696 0.9664-0.27696 1.776-0.13629 1.6088-0.30288 1.776c-0.16658 0.1672-0.33414 0.952-0.37235 1.744-0.0382 0.792-0.18382 1.5914-0.32358 1.7765s-0.34794 1.6251-0.46262 3.2-0.30077 3.0075-0.41354 3.1835c-0.11276 0.176-0.23275 0.752-0.26662 1.28-0.0339 0.528-0.14475 1.68-0.24638 2.56-0.41058 3.5551-0.48574 4.2247-0.64656 5.76-0.0922 0.88-0.20889 2.4648-0.25935 3.5218-0.0505 1.057-0.18879 2.0789-0.30742 2.2708-0.80001 1.2945-0.82416 36.681-0.0259 37.973 0.10782 0.17446 0.25223 1.8279 0.32093 3.6743 0.0687 1.8464 0.2682 3.6249 0.44334 3.9521s0.2307 0.94455 0.12348 1.3718c-0.10723 0.42723-0.0371 1.0717 0.15583 1.4322 0.19294 0.36051 0.36397 1.6339 0.38008 2.8298 0.0161 1.1959 0.15043 2.3234 0.29852 2.5056 0.22772 0.28016 0.43572 1.8441 0.72911 5.4822 0.0308 0.38141 0.16392 0.80141 0.29592 0.93334 0.132 0.13194 0.24 1.0079 0.24 1.9466 0 0.93866 0.12568 1.7067 0.27929 1.7067s0.3648 0.684 0.46931 1.52c0.33827 2.7058 2.3734 12.151 3.258 15.12 0.52774 1.7715 0.88332 3.1467 1.386 5.36 0.46128 2.0311 1.1021 4.0648 1.3814 4.384 0.14633 0.1672 0.26605 0.54442 0.26605 0.83827 0 0.79159 4.2508 13.504 5.396 16.138 0.5516 1.2684 0.95542 2.2848 1.9706 4.96 0.56771 1.496 1.1584 2.8568 1.3128 3.024 0.15433 0.1672 0.28059 0.52493 0.28059 0.79494 0 0.26999 0.3551 1.2132 0.7891 2.096 0.43401 0.88279 1.5146 3.1891 2.4014 5.1251 0.88677 1.936 2.1292 4.528 2.761 5.76 2.8322 5.5229 5.2038 10.009 5.836 11.04 0.37785 0.616 0.78878 1.336 0.91318 1.6 1.8567 3.9404 12.631 20.215 17.499 26.433 1.2544 1.6022 2.5687 3.3113 2.9207 3.798 0.83839 1.1593 4.0833 5.1387 5.3795 6.5971 0.56128 0.63152 1.6685 1.9024 2.4605 2.8241 5.0597 5.8886 12.854 13.824 82.74 84.238 6.5229 6.5723 22.214 22.462 34.869 35.31s28.27 28.638 34.7 35.088c6.4303 6.4506 13.347 13.465 15.371 15.588 4.5499 4.7719 3.4913 4.9865 10.701-2.1692zm593.07-567.97c2.8086-2.8431 3.6997-3.8967 3.4808-4.1155-0.2414-0.24141-5.0723 4.2214-6.5725 6.0716-1.3647 1.6832 0.9323 0.22992 3.0917-1.9561z" fill="#eb6c6c" stroke-width=".32"/>
</svg>
