<?xml version="1.0" encoding="UTF-8" standalone="no"?>
<!-- Created with Inkscape (http://www.inkscape.org/) -->

<svg
   version="1.1"
   id="svg108"
   width="410.66061"
   height="218.5"
   viewBox="0 0 410.66061 218.5"
   sodipodi:docname="LUV_LOGO.svg"
   inkscape:export-filename="LUV_LOGO"
   inkscape:export-xdpi="96"
   inkscape:export-ydpi="96"
   xmlns:inkscape="http://www.inkscape.org/namespaces/inkscape"
   xmlns:sodipodi="http://sodipodi.sourceforge.net/DTD/sodipodi-0.dtd"
   xmlns="http://www.w3.org/2000/svg"
   xmlns:svg="http://www.w3.org/2000/svg">
  <defs
     id="defs112" />
  <sodipodi:namedview
     id="namedview110"
     pagecolor="#ffffff"
     bordercolor="#000000"
     borderopacity="0.25"
     inkscape:showpageshadow="2"
     inkscape:pageopacity="0.0"
     inkscape:pagecheckerboard="0"
     inkscape:deskcolor="#d1d1d1"
     showgrid="false" />
  <g
     inkscape:groupmode="layer"
     inkscape:label="Image"
     id="g114"
     style="display:inline"
     transform="translate(-63.15757,-138.5)">
    <path
       style="fill:#f5d0d0"
       d="m 169.47459,279 c 0,-40.425 0.12376,-56.9625 0.27503,-36.75 0.15126,20.2125 0.15126,53.2875 0,73.5 -0.15127,20.2125 -0.27503,3.675 -0.27503,-36.75 z"
       id="path962" />
    <path
       style="fill:#e96b6b"
       d="m 345.51898,346.26067 c -5.51044,-5.90663 -12.58379,-13.44413 -15.71855,-16.75 L 324.10085,323.5 314.07441,334 l -10.02644,10.5 -2.55178,-2.83808 -2.55179,-2.83808 8.01305,-8.77723 c 4.40717,-4.82748 8.69468,-9.34294 9.5278,-10.03437 2.24067,-1.85959 1.85145,-3.04894 -2.61507,-7.99092 l -4.04778,-4.47867 -10.50437,11.22867 c -5.7774,6.17578 -11.02494,11.20178 -11.6612,11.16889 -1.15759,-0.0598 -9.74671,-9.70986 -10.40792,-11.69349 -0.1929,-0.5787 4.43272,-6.06109 10.27917,-12.18308 l 10.62991,-11.13088 -9.329,-10.07704 c -20.39316,-22.02837 -23.8207,-26.26412 -27.77085,-34.31923 -12.65477,-25.80547 -7.9584,-55.79354 11.84747,-75.65045 11.7512,-11.78148 23.74362,-16.89751 39.55449,-16.87417 15.23956,0.0225 27.14745,5.01214 39.3443,16.48606 l 7.87306,7.40642 4.41127,-4.54376 c 6.50687,-6.7023 15.74531,-12.99861 23.53385,-16.03912 5.98567,-2.3367 8.36854,-2.69337 18.37742,-2.75071 7.30029,-0.0418 12.90756,0.4306 15.35429,1.29364 l 3.8543,1.35954 10.85931,-11.36197 10.85931,-11.36197 5.49741,6 c 3.02358,3.3 5.51495,6.25058 5.5364,6.55684 0.0214,0.30627 -3.74623,4.58127 -8.3726,9.5 l -8.41158,8.94316 4.6333,4.75945 4.6333,4.75946 9.06965,-9.03194 9.06964,-9.03194 2.61773,2.77249 2.61772,2.77248 -9.2911,9.8264 -9.2911,9.8264 2.83215,5.6736 c 10.02024,20.07339 8.6128,45.6992 -3.5546,64.71991 -1.98901,3.10931 -9.10574,11.56959 -15.81495,18.8006 -6.70922,7.23102 -24.50891,26.42361 -39.55487,42.6502 C 363.28504,356.66955 362.9436,357 358.84332,357 c -2.91335,0 -4.49361,-1.27368 -13.32434,-10.73933 z M 399.01871,291.75 c 21.59015,-23.2375 40.23732,-43.825 41.43816,-45.75 5.65565,-9.06625 8.18028,-21.25188 6.53576,-31.54615 -1.09831,-6.87511 -3.7946,-14.74145 -4.88281,-14.24544 -0.35185,0.16037 -14.583,14.91621 -31.62478,32.79075 -17.04177,17.87453 -40.58422,42.50692 -52.31655,54.73864 l -21.33152,22.23949 1.83152,2.32193 C 342.18167,316.75313 358.40554,334 359.08208,334 c 0.375,0 18.34649,-19.0125 39.93663,-42.25 z m -28.92062,-28 c 21.10656,-22.1375 42.91355,-44.975 48.45998,-50.75 5.54643,-5.775 12.17627,-12.78214 14.73298,-15.57143 l 4.64856,-5.07142 -4.25766,-4.17858 C 431.34024,185.88036 428.94161,184 428.35166,184 c -0.58995,0 -12.4591,12.0375 -26.37588,26.75 -13.91678,14.7125 -29.84206,31.47824 -35.38951,37.25721 -25.00426,26.04777 -43.1127,45.2632 -43.41004,46.06371 -0.34641,0.93265 6.80863,9.92908 7.8968,9.92908 0.35723,0 17.91851,-18.1125 39.02506,-40.25 z M 345.09921,245.5 c 18.26067,-19.25 39.99612,-42.13211 48.30101,-50.84913 8.30488,-8.71702 15.27134,-16.31921 15.48103,-16.89376 0.2524,-0.69158 -1.94438,-0.8766 -6.5,-0.54747 -10.45114,0.75508 -16.97022,4.52469 -28.90627,16.71485 -5.41755,5.53288 -10.69817,10.32896 -11.73471,10.65795 -3.56777,1.13236 -6.5199,-0.57964 -13.37104,-7.75411 -14.39967,-15.07925 -18.94141,-18.06534 -30.24572,-19.88584 -21.84673,-3.51832 -42.25996,12.70563 -46.31179,36.80751 -2.07068,12.31718 1.44003,26.20081 8.99228,35.56145 1.69132,2.0963 7.54334,8.6213 13.00448,14.5 5.46115,5.8787 11.17166,12.17282 12.69003,13.98692 1.51837,1.8141 3.3544,3.1641 4.08007,3 0.72567,-0.1641 16.25995,-16.04837 34.52063,-35.29837 z"
       id="path960" />
    <path
       style="fill:#646464"
       d="m 169.99804,352.28174 c -0.001,-0.42996 5.16873,-0.64208 11.48847,-0.47139 l 11.49043,0.31034 0.26153,-39.81034 L 193.5,272.5 208.75,272.22395 224,271.94791 V 261.5 251.05209 l -15.25,-0.30411 -15.25,-0.3041 15.78275,-0.22194 L 225.0655,250 224.78275,261.25 224.5,272.5 l -15.23855,0.27598 -15.23855,0.27599 -0.26145,39.72401 L 193.5,352.5 l -11.75,0.28174 c -6.4625,0.15495 -11.75088,-0.0701 -11.75196,-0.5 z m 15.8651,-170.54584 c 0.42078,-0.42025 15.36121,-0.64488 33.20096,-0.49917 l 32.4359,0.26493 -33.20096,0.49917 c -18.26053,0.27454 -32.85668,0.15533 -32.4359,-0.26493 z m 19.94983,-22.48441 c 8.97214,-0.1659 23.37214,-0.16557 32,7.3e-4 8.62787,0.1663 1.28703,0.30204 -16.31297,0.30164 -17.6,-4e-4 -24.65916,-0.13647 -15.68703,-0.30237 z"
       id="path958" />
    <path
       style="fill:#010101"
       d="M 107,355.30962 C 101.06537,354.3173 91.691498,350.59873 86.309557,347.10182 78.346834,341.92805 72.474348,335.21504 68.449791,326.68579 64.199496,317.67813 62.84933,308.99062 63.214525,293 L 63.5,280.5 l 11.165197,-0.28196 11.165198,-0.28196 0.334802,16.78196 c 0.310379,15.55772 0.516567,17.13787 2.826437,21.66087 C 93.532028,327.26952 104.48921,334 114.42268,334 c 10.73292,0 21.77547,-6.93512 26.21173,-16.4619 3.34297,-7.17896 3.34297,-19.89724 0,-27.0762 C 137.17854,283.04048 131.50153,278.78236 108.02135,266 83.595129,252.70263 77.86986,248.55233 72.162621,240.00567 66.092857,230.91613 63.737908,222.66915 63.73719,210.5 c -0.0011,-18.975 6.840453,-31.83274 22.369204,-42.03966 9.347754,-6.14421 17.317976,-8.63452 29.518046,-9.22299 5.56845,-0.26859 38.75595,-0.15282 73.75,0.25726 L 253,160.24021 V 170.6201 181 h -33.33333 c -18.33334,0 -33.59596,0.26262 -33.91695,0.58361 -0.32098,0.32099 0.32263,2.11957 1.43026,3.99686 4.61664,7.82463 5.19204,11.70654 5.76889,38.91953 l 0.55113,26 15.25,0.27605 15.25,0.27604 V 261.5 271.94791 l -15.25,0.27604 -15.25,0.27605 -0.2615,39.78264 -0.26151,39.78265 L 181.7385,351.78264 170.5,351.5 170,276 c -0.5667,-85.57169 0.0992,-79.12911 -9.02714,-87.33449 C 153.6607,182.09125 149.01801,181 128.36018,181 c -14.84161,0 -18.24891,0.2948 -23.09553,1.99825 -6.4536,2.26826 -13.272229,8.2622 -16.497007,14.50175 -2.841806,5.49855 -3.46209,15.59937 -1.394668,22.71104 2.86055,9.83995 7.374627,13.62021 32.586225,27.28896 25.06889,13.59138 31.65304,18.35987 37.58428,27.21999 6.36185,9.50336 7.96888,15.56939 7.88941,29.78001 -0.0564,10.08749 -0.43907,12.95625 -2.40097,18 -2.98126,7.66433 -8.82497,16.31105 -14.04071,20.77553 -10.6344,9.10265 -28.64818,14.26514 -41.99121,12.03409 z"
       id="path956" />
  </g>
</svg>
