<?xml version="1.0" encoding="UTF-8" standalone="no"?>
<!-- Created with Inkscape (http://www.inkscape.org/) -->

<svg
   version="1.1"
   id="svg150"
   width="1587.2"
   height="1587.2"
   viewBox="0 0 1587.2 1587.2"
   xmlns="http://www.w3.org/2000/svg"
   xmlns:svg="http://www.w3.org/2000/svg">
  <defs
     id="defs154" />
  <g
     id="g156">
    <path
       style="fill:#eb6c6c;fill-opacity:1;stroke-width:0.32"
       d="m 763.58739,1374.5478 c -0.23081,-0.2617 -0.96902,-0.4678 -1.67542,-0.4678 -2.39927,0 -12.45354,-3.0895 -14.07197,-4.3241 -0.264,-0.2014 -1.344,-0.7723 -2.4,-1.2685 -2.00931,-0.9444 -4.79293,-2.7871 -7.94864,-5.2619 -2.50854,-1.9674 -14.59398,-14.0024 -42.6031,-42.4255 -26.92112,-27.319 -42.02749,-42.5876 -58.24826,-58.8739 -9.73654,-9.7758 -31.70742,-31.9898 -65.11568,-65.8361 -3.95763,-4.0095 -7.34163,-7.2878 -7.52,-7.2851 -0.34784,0.01 -6.10109,5.3198 -7.67306,7.088 -0.52179,0.5869 -1.9463,2.0031 -3.16556,3.1471 -1.21927,1.144 -3.02432,2.944 -4.01127,4 -0.98694,1.056 -2.65005,2.712 -3.69584,3.68 -1.04576,0.968 -3.66211,3.488 -5.81408,5.6 -2.152,2.112 -4.24838,4.1673 -4.65862,4.5674 -3.19933,3.1197 -6.7424,6.6542 -7.94589,7.9266 -0.792,0.8373 -2.35558,2.4007 -3.47462,3.4742 -2.20471,2.115 -9.84151,9.5263 -10.95648,10.6331 -0.37751,0.3747 -1.92893,1.9129 -3.44762,3.4183 -1.51872,1.5054 -3.48022,3.5029 -4.35891,4.4388 -0.87872,0.9359 -2.45434,2.4936 -3.50141,3.4616 -1.04707,0.968 -3.66448,3.488 -5.81645,5.6 -2.152,2.112 -4.22083,4.128 -4.59737,4.48 -0.37655,0.352 -1.86874,1.864 -3.31594,3.36 -1.4472,1.496 -3.27478,3.3059 -4.06125,4.022 -0.78646,0.7162 -2.23485,2.1562 -3.21862,3.2 -0.98378,1.0439 -3.93578,3.9527 -6.56,6.4641 -6.13408,5.8702 -5.54912,5.2981 -8.25517,8.0739 -1.28678,1.32 -3.17459,3.1636 -4.1951,4.097 l -1.85549,1.697 -1.10179,-1.057 c -0.60599,-0.5814 -8.59559,-8.6543 -17.75469,-17.9398 l -16.65293,-16.8829 2.04192,-1.9971 c 1.12304,-1.0985 2.68992,-2.7034 3.48192,-3.5665 0.792,-0.8631 2.10643,-2.099 2.92096,-2.7464 0.81453,-0.6474 2.35795,-2.1961 3.42982,-3.4415 1.07188,-1.2454 2.80269,-2.9352 3.84628,-3.755 1.04355,-0.8199 2.56604,-2.3244 3.38332,-3.3434 0.81732,-1.0189 2.09207,-2.3413 2.8328,-2.9385 1.4736,-1.1881 3.7984,-3.4751 5.88564,-5.7897 0.73632,-0.8166 2.14032,-2.0768 3.12,-2.8006 0.97964,-0.7237 1.78118,-1.4344 1.78118,-1.5794 0,-0.4858 3.84246,-4.4635 5.45552,-5.6476 0.87722,-0.6439 2.23462,-2.0021 3.01651,-3.0182 0.78186,-1.0162 2.30976,-2.5501 3.39533,-3.409 1.08557,-0.8587 2.2759,-1.9214 2.64522,-2.3614 0.36931,-0.44 1.97104,-2.0613 3.55945,-3.6029 1.58839,-1.5416 3.39031,-3.3416 4.00429,-4 0.61398,-0.6584 2.25978,-2.2771 3.65734,-3.5971 1.39757,-1.32 3.1968,-3.12 3.99824,-4 0.80148,-0.88 2.38327,-2.464 3.51514,-3.52 1.13187,-1.056 3.74317,-3.576 5.80294,-5.6 2.05975,-2.024 4.04874,-3.968 4.42,-4.32 0.37127,-0.352 1.80224,-1.792 3.17994,-3.2 1.3777,-1.408 3.21706,-3.2263 4.08749,-4.0406 0.87043,-0.8144 2.46486,-2.3984 3.54317,-3.52 1.07833,-1.1217 2.73955,-2.7594 3.69161,-3.6394 0.95207,-0.88 2.30179,-2.2561 2.99943,-3.058 0.6976,-0.8018 2.06038,-2.0978 3.02838,-2.88 0.968,-0.7821 2.11469,-1.854 2.54819,-2.382 0.43351,-0.528 1.69351,-1.8671 2.8,-2.9757 2.59274,-2.5978 3.3928,-1.3145 -7.69085,-12.336 -5.33644,-5.3066 -16.56563,-16.6074 -24.95372,-25.113 -8.69658,-8.8183 -15.44813,-15.4197 -15.70954,-15.36 -0.25213,0.058 -10.05504,9.6087 -21.78429,21.2247 -11.72921,11.616 -23.80176,23.5536 -26.82784,26.5281 -8.84243,8.6916 -53.676,53.0669 -54.59533,54.0374 l -0.83888,0.8855 -9.76547,-9.8455 c -30.22662,-30.4743 -63.51427,-64.1778 -63.59279,-64.3872 -0.0498,-0.1328 1.53422,-1.8626 3.52,-3.844 4.7265,-4.7162 43.66569,-43.2467 53.05116,-52.4943 31.27072,-30.8115 47.04992,-46.5808 46.97146,-46.9419 -0.11389,-0.5242 -39.69162,-40.74421 -69.5321,-70.6605 -6.512,-6.52854 -22.131,-22.30278 -34.7089,-35.05386 -12.57789,-12.75104 -28.08156,-28.39449 -34.45259,-34.7632 -6.37104,-6.3687 -11.70404,-11.79283 -11.85111,-12.05363 -0.14707,-0.2608 -4.5154,-4.79974 -9.7074,-10.08653 -9.29963,-9.4694 -13.02238,-13.3902 -14.43316,-15.20105 -0.39451,-0.50637 -1.01643,-1.24215 -1.38206,-1.63501 -2.31577,-2.48842 -8.82478,-10.35958 -8.82478,-10.67155 0,-0.17568 -0.10884,-0.36743 -0.24186,-0.42611 -0.13302,-0.0587 -1.37972,-1.54666 -2.77045,-3.30666 -1.39072,-1.76 -2.68589,-3.344 -2.87814,-3.52 -0.19225,-0.176 -0.54339,-0.69642 -0.78031,-1.15645 -0.23693,-0.46006 -0.75303,-1.184 -1.14689,-1.60877 -0.39387,-0.42476 -1.88804,-2.42435 -3.32037,-4.44355 -1.43234,-2.01917 -2.71737,-3.81523 -2.85562,-3.99123 -0.13826,-0.176 -0.52674,-0.74829 -0.86328,-1.27178 -0.33655,-0.52348 -0.87542,-1.23465 -1.19749,-1.58035 -0.32208,-0.34569 -0.58559,-0.74118 -0.58559,-0.87885 0,-0.25593 -1.91993,-3.17968 -2.278,-3.46902 -0.34077,-0.27536 -8.282,-13.14218 -8.282,-13.41894 0,-0.14448 -0.20274,-0.43095 -0.45052,-0.63661 -0.24779,-0.20563 -0.68377,-0.83527 -0.96885,-1.39917 -0.28508,-0.5639 -0.69434,-1.30976 -0.90948,-1.65747 -1.88354,-3.04429 -2.47115,-4.04928 -2.47115,-4.22643 0,-0.11344 -0.81699,-1.65863 -1.81553,-3.4338 -0.99853,-1.77516 -2.151,-3.87558 -2.56104,-4.66758 -0.41003,-0.792 -0.8844,-1.656 -1.05415,-1.92 -0.16975,-0.264 -0.74166,-1.416 -1.2709,-2.56 -0.52925,-1.144 -1.25075,-2.584 -1.60333,-3.2 -0.35259,-0.616 -1.44806,-2.848 -2.43437,-4.96 -2.36446,-5.06301 -3.37842,-7.23552 -4.58315,-9.81984 -0.54864,-1.1769 -0.99753,-2.22246 -0.99753,-2.32349 0,-0.10099 -0.30324,-0.86608 -0.67387,-1.70016 -1.20736,-2.71709 -1.51097,-3.41766 -2.04406,-4.71651 -0.28894,-0.704 -0.65188,-1.568 -0.80652,-1.92 -0.87741,-1.99715 -3.69969,-9.45421 -4.78389,-12.64 -0.32944,-0.968 -1.20326,-3.416 -1.94183,-5.44 -0.73857,-2.024 -1.45732,-4.184 -1.59722,-4.8 -0.1399,-0.616 -0.5386,-1.912 -0.886,-2.88 -0.34739,-0.968 -0.8755,-2.624 -1.17356,-3.68 -0.29807,-1.056 -0.66265,-2.208 -0.81018,-2.56 -0.27754,-0.66218 -0.88946,-2.92077 -1.17043,-4.32 -0.0884,-0.44 -0.28296,-1.088 -0.43244,-1.44 -0.14948,-0.352 -0.34393,-1 -0.4321,-1.44 -0.0882,-0.44 -0.89242,-3.60762 -1.78722,-7.03917 -1.76088,-6.75293 -2.46181,-9.73923 -2.92942,-12.48083 -0.1651,-0.968 -0.43401,-2.048 -0.59756,-2.4 -0.16356,-0.352 -0.36705,-1.216 -0.4522,-1.92 -0.32441,-2.68192 -0.60274,-4.17843 -0.87219,-4.6895 -0.15354,-0.2912 -0.37316,-1.5872 -0.48803,-2.88 -0.11488,-1.29277 -0.32762,-2.58269 -0.47276,-2.86647 -0.23809,-0.4655 -0.66814,-3.5632 -0.66139,-4.76403 0.002,-0.264 -0.11802,-0.768 -0.26557,-1.12 -0.35931,-0.85718 -1.37439,-8.49382 -1.15781,-8.71043 0.0939,-0.0939 -0.0338,-0.56621 -0.28375,-1.04957 -0.24996,-0.48336 -0.38928,-0.94406 -0.30959,-1.02374 0.0797,-0.0797 -0.14537,-2.93748 -0.50012,-6.35063 -0.35475,-3.41315 -0.57373,-6.39145 -0.48662,-6.61846 0.0871,-0.22701 0.008,-0.80749 -0.1756,-1.28995 -0.18369,-0.48247 -0.39668,-2.74922 -0.47331,-5.03722 -0.0766,-2.288 -0.3041,-4.91098 -0.50548,-5.82886 -0.28197,-1.28516 -0.27717,-1.77607 0.0209,-2.13517 0.30068,-0.36227 0.30305,-0.91808 0.0106,-2.49114 -0.48903,-2.63078 -0.49689,-26.58224 -0.01,-29.01181 0.24319,-1.21228 0.2432,-1.89232 6e-5,-2.34662 -0.24009,-0.44864 -0.24323,-1.08579 -0.0105,-2.13306 0.18251,-0.82134 0.40738,-3.36534 0.49971,-5.65334 0.0923,-2.288 0.30681,-4.63626 0.47661,-5.21834 0.16981,-0.58208 0.24282,-1.23011 0.16225,-1.44009 -0.0806,-0.20995 0.001,-1.6777 0.18215,-3.26167 0.18075,-1.58393 0.40057,-3.81907 0.48849,-4.96691 0.0879,-1.14787 0.45437,-4.17187 0.81434,-6.72 0.35996,-2.54816 0.77438,-5.73629 0.92093,-7.08473 0.14656,-1.34848 0.40799,-2.93248 0.58097,-3.52 0.17299,-0.58756 0.32412,-1.4018 0.33585,-1.80941 0.0117,-0.40765 0.18998,-1.55354 0.3961,-2.54643 0.20612,-0.99287 0.4054,-2.17136 0.44285,-2.61882 0.1273,-1.52112 0.88059,-5.61101 1.15181,-6.2536 0.14856,-0.352 0.64523,-2.584 1.10371,-4.96 0.45848,-2.376 1.03495,-5.112 1.28104,-6.08 0.6764,-2.66064 2.07975,-8.29568 2.47047,-9.92 0.19051,-0.792 0.84132,-3.168 1.44624,-5.28 0.60493,-2.112 1.31009,-4.632 1.56704,-5.6 0.54403,-2.0495 1.56186,-5.2303 3.53273,-11.04 0.77617,-2.288 1.7107,-5.096 2.07673,-6.24 0.36602,-1.144 0.84273,-2.512 1.05934,-3.04 0.21662,-0.528 0.54671,-1.392 0.73353,-1.92 0.30601,-0.86486 2.65355,-7.05174 3.27834,-8.64 0.13846,-0.352 0.6112,-1.4393 1.05052,-2.41619 0.43932,-0.9769 1.02793,-2.4512 1.30803,-3.27619 0.28009,-0.825 0.63938,-1.75373 0.79842,-2.06381 0.15904,-0.31008 0.67413,-1.42781 1.14465,-2.48381 0.47052,-1.056 1.20668,-2.64227 1.63593,-3.52506 0.42924,-0.88281 0.78044,-1.70688 0.78044,-1.83126 0,-0.2679 1.5246,-3.71254 1.94908,-4.40368 0.16214,-0.264 1.01786,-1.992 1.90161,-3.84 2.50271,-5.23344 5.9051,-11.74957 6.42451,-12.304 0.15664,-0.1672 0.2848,-0.47648 0.2848,-0.6873 0,-0.21081 0.58129,-1.34012 1.29177,-2.5096 0.71047,-1.16944 1.72092,-2.94816 2.24543,-3.9527 0.52452,-1.00451 1.31024,-2.4024 1.74606,-3.1064 0.43581,-0.704 0.89309,-1.496 1.01616,-1.76 0.244,-0.52339 1.69947,-2.87856 6.62484,-10.72 1.76879,-2.816 3.33294,-5.264 3.4759,-5.44 0.41072,-0.50566 4.39427,-6.23421 5.56308,-8 1.29802,-1.96099 2.8941,-4.22755 3.3374,-4.73939 0.18132,-0.20931 0.89926,-1.17261 1.59543,-2.14061 0.69616,-0.968 1.37769,-1.904 1.51449,-2.08 0.13681,-0.176 0.6764,-0.89555 1.19909,-1.59901 0.52269,-0.70345 2.39035,-3.05593 4.15035,-5.22777 1.76,-2.17181 3.416,-4.25447 3.68,-4.62813 0.264,-0.37363 1.03527,-1.26115 1.71395,-1.97223 0.67867,-0.71107 1.63788,-1.86886 2.13158,-2.57286 0.49369,-0.704 1.16242,-1.50992 1.48605,-1.79091 0.32363,-0.28099 1.81242,-1.97287 3.30842,-3.75971 1.496,-1.78685 2.81249,-3.24893 2.92554,-3.24909 0.11305,-1.6e-4 1.26505,-1.25898 2.56,-2.79741 3.66755,-4.35706 16.71049,-17.21018 22.99446,-22.65981 0.968,-0.83949 2.05376,-1.82707 2.41279,-2.19469 0.85527,-0.87568 4.50755,-4.04432 5.30724,-4.60444 0.34391,-0.24087 1.01559,-0.80346 1.49263,-1.25015 1.25405,-1.1743 9.66493,-7.94915 12.432,-10.01379 1.29733,-0.968 3.618,-2.68022 5.15706,-3.80493 1.53905,-1.1247 2.84628,-2.1687 2.90494,-2.32 0.0587,-0.15129 0.25984,-0.27507 0.44705,-0.27507 0.1872,0 0.9312,-0.47328 1.65333,-1.05178 0.72213,-0.57846 2.79928,-2.05446 4.6159,-3.28 1.81661,-1.22551 3.54461,-2.3932 3.84,-2.59485 2.2689,-1.54887 10.0909,-6.57363 10.96816,-7.04582 0.60037,-0.32315 1.5452,-0.91155 2.09964,-1.30755 0.55443,-0.396 1.09103,-0.72 1.19244,-0.72 0.10142,0 0.97227,-0.504 1.93523,-1.12 0.96297,-0.616 1.84353,-1.12 1.95682,-1.12 0.11328,0 0.62627,-0.29928 1.13997,-0.66507 0.51371,-0.36579 1.68793,-1.05789 2.60941,-1.538 0.92147,-0.48011 2.39539,-1.27984 3.27539,-1.77717 5.03606,-2.84614 23.35478,-12.01976 24.00217,-12.01976 0.0775,0 1.17652,-0.504 2.44228,-1.12 1.26572,-0.616 2.45545,-1.12 2.64384,-1.12 0.18838,0 1.0646,-0.34635 1.9471,-0.76965 0.88253,-0.42332 2.61261,-1.16533 3.84461,-1.64892 1.232,-0.48359 2.98707,-1.21724 3.90019,-1.63034 0.91309,-0.4131 1.77709,-0.75068 1.92,-0.75017 0.14288,6.4e-4 1.19581,-0.37631 2.33981,-0.83737 5.05317,-2.03655 10.35135,-3.96355 10.89759,-3.96355 0.27193,0 0.63123,-0.13366 0.79843,-0.29702 0.1672,-0.16336 1.816,-0.73982 3.664,-1.28102 1.848,-0.5412 3.648,-1.11112 4,-1.2665 0.352,-0.15538 1.216,-0.44238 1.92,-0.63776 4.09667,-1.137 7.92922,-2.29507 8.24861,-2.49247 0.2024,-0.12508 0.94925,-0.3289 1.65968,-0.45292 0.71043,-0.12403 2.08371,-0.45385 3.05171,-0.73294 0.968,-0.27909 3.056,-0.81196 4.64,-1.18415 1.584,-0.37218 3.672,-0.88807 4.64,-1.14642 0.968,-0.25835 2.408,-0.59699 3.2,-0.75253 0.792,-0.15555 2.448,-0.51348 3.68,-0.7954 1.232,-0.28193 2.96,-0.59567 3.84,-0.69721 0.88,-0.10153 1.744,-0.29123 1.92,-0.42155 0.176,-0.13033 1.10371,-0.33675 2.0616,-0.45873 0.95792,-0.12197 1.89274,-0.31515 2.07741,-0.42928 0.18467,-0.11414 0.98493,-0.25632 1.77837,-0.31598 0.79344,-0.0596 2.23462,-0.29531 3.20262,-0.52369 0.968,-0.22838 2.32048,-0.44344 3.0055,-0.47792 0.68503,-0.0345 1.50356,-0.20079 1.81895,-0.3696 0.31542,-0.1688 1.41814,-0.30691 2.45053,-0.30691 1.03235,0 2.01478,-0.13777 2.18316,-0.30616 0.16842,-0.16839 1.38522,-0.3958 2.704,-0.50537 2.66394,-0.22131 3.54733,-0.31947 7.03786,-0.78208 1.32,-0.17494 2.59824,-0.24546 2.84054,-0.15671 0.24234,0.0888 0.60234,0.0276 0.8,-0.136 0.1977,-0.16354 2.06343,-0.38092 4.14602,-0.48305 2.08262,-0.10214 3.92554,-0.27157 4.09533,-0.37652 0.16982,-0.10496 2.35385,-0.25297 4.85344,-0.32892 2.49958,-0.0759 5.56342,-0.28522 6.80861,-0.46504 1.53491,-0.22167 2.53936,-0.22222 3.11936,-0.002 0.57731,0.21949 1.40185,0.22037 2.53606,0.003 2.28218,-0.43799 18.58374,-0.42665 21.01725,0.0146 1.38672,0.25146 2.11837,0.25311 2.58045,0.006 0.45638,-0.24425 1.41644,-0.24833 3.28393,-0.014 1.45146,0.18215 4.43901,0.40533 6.63901,0.49596 6.16886,0.25411 12.24659,0.80329 13.00947,1.17551 0.37923,0.18503 0.82339,0.25366 0.98707,0.15251 0.16365,-0.10115 1.36538,-0.0451 2.6705,0.12449 3.65462,0.47496 4.43181,0.56206 6.99766,0.78421 1.31162,0.11356 2.60762,0.3155 2.88,0.44876 0.27242,0.13327 1.34848,0.27002 2.39127,0.3039 1.04278,0.0339 2.05331,0.19217 2.2456,0.35177 0.19229,0.15959 1.1391,0.36734 2.10403,0.46167 3.64435,0.35626 19.47779,3.4941 25.07491,4.9693 1.38631,0.36537 2.85552,0.66432 3.26496,0.66432 0.40944,0 1.0752,0.12585 1.47946,0.27967 0.95821,0.36458 3.55827,1.14763 5.37507,1.61878 0.792,0.20538 2.10733,0.58226 2.92294,0.83749 0.81562,0.25523 1.77914,0.46406 2.14112,0.46406 0.36199,0 0.74717,0.144 0.85594,0.32 0.10877,0.176 0.43277,0.32 0.71997,0.32 0.55449,0 4.86553,1.27831 7.69929,2.28298 0.9346,0.33135 2.2306,0.73018 2.88,0.8863 0.64941,0.15612 2.83674,0.88428 4.86074,1.61814 2.024,0.73386 4.544,1.63065 5.6,1.99289 1.056,0.36222 2.0568,0.78484 2.224,0.93914 0.1672,0.1543 0.55926,0.28055 0.87126,0.28055 0.31197,0 1.32717,0.34459 2.256,0.76576 0.9288,0.42117 3.27274,1.37444 5.20874,2.11837 1.936,0.74394 3.6568,1.47934 3.824,1.63424 0.1672,0.1549 0.48726,0.28163 0.71126,0.28163 0.22397,0 1.16717,0.34349 2.096,0.76332 1.5961,0.72144 3.4714,1.55528 6.00874,2.6717 4.92211,2.16573 20.1504,9.68748 22.60317,11.16446 0.98691,0.59429 1.86937,1.08052 1.96102,1.08052 0.0916,0 1.07869,0.576 2.19338,1.28 1.11472,0.704 2.15293,1.28 2.30713,1.28 0.15421,0 1.56173,0.79056 3.12784,1.75681 1.56612,0.96625 3.27946,1.99133 3.80746,2.27796 1.01149,0.54909 9.65274,5.99201 14.67786,9.24523 2.82758,1.83056 9.5648,6.55584 10.92214,7.66051 0.352,0.28646 1.87645,1.41606 3.38768,2.51018 2.82477,2.04512 3.47302,2.54067 7.62566,5.82931 1.33344,1.056 2.64093,2.09123 2.90554,2.30051 4.13005,3.26656 15.29744,12.91958 18.25501,15.77949 0.81907,0.792 3.40294,3.24 5.74198,5.44 2.33904,2.2 4.54573,4.36 4.90371,4.8 0.35802,0.44 5.99005,6.14973 12.51565,12.68829 6.52563,6.53856 13.80877,13.91024 16.18477,16.3815 2.376,2.4713 4.53792,4.50157 4.80429,4.51171 0.4615,0.0176 9.27571,-8.54704 9.27571,-9.01309 0,-0.24947 25.91725,-26.1838 31.90736,-31.92841 6.42166,-6.15847 11.41347,-10.57523 18.65264,-16.50391 2.88662,-2.36406 4.00522,-3.29417 4.59571,-3.82128 1.01005,-0.90163 6.21047,-4.82054 9.32429,-7.02652 1.936,-1.37156 3.568,-2.61853 3.62666,-2.77101 0.0587,-0.15251 0.29305,-0.27728 0.52083,-0.27728 0.22777,0 0.58915,-0.21088 0.80307,-0.46864 0.21392,-0.25773 1.13155,-0.97415 2.03917,-1.592 3.81629,-2.59789 5.49657,-3.82034 5.59693,-4.07196 0.0587,-0.14707 0.25593,-0.2674 0.43836,-0.2674 0.1824,0 2.17738,-1.224 4.43322,-2.72 2.25584,-1.496 4.16266,-2.72 4.23731,-2.72 0.0747,0 1.19971,-0.69825 2.5001,-1.55165 1.30038,-0.85341 3.02758,-1.91897 3.83821,-2.36791 0.81065,-0.44894 2.65804,-1.55069 4.10534,-2.44835 1.44733,-0.89765 2.76762,-1.63209 2.93398,-1.63209 0.16637,0 1.21453,-0.576 2.32925,-1.28 1.11469,-0.704 2.13293,-1.28 2.26275,-1.28 0.12983,0 0.61824,-0.26672 1.08541,-0.5927 0.85194,-0.59446 4.30035,-2.38341 7.88941,-4.09283 1.056,-0.50296 1.992,-1.00507 2.08,-1.11579 0.088,-0.11073 1.456,-0.8069 3.04,-1.54705 1.584,-0.74015 3.54749,-1.69355 4.3633,-2.11868 0.81584,-0.42512 1.71584,-0.77295 2,-0.77295 0.28419,0 0.51724,-0.108 0.51788,-0.24 0,-0.132 0.68468,-0.51894 1.52,-0.85986 0.83536,-0.34093 2.84388,-1.24093 4.46343,-2 1.61952,-0.75908 3.03776,-1.38014 3.15161,-1.38014 0.11389,0 0.7328,-0.22814 1.37543,-0.50697 0.64259,-0.27884 2.03235,-0.8707 3.08835,-1.31525 1.056,-0.44455 2.352,-0.993 2.88,-1.21879 0.528,-0.22579 1.464,-0.58657 2.08,-0.80173 0.616,-0.21517 1.87994,-0.73457 2.80874,-1.15423 0.92883,-0.41967 1.96432,-0.76303 2.30112,-0.76303 0.3368,0 0.70137,-0.144 0.81014,-0.32 0.10877,-0.176 0.41952,-0.32 0.69053,-0.32 0.27101,0 0.94649,-0.20655 1.50112,-0.459 0.55459,-0.25245 2.16035,-0.84516 3.56835,-1.31714 1.408,-0.47198 2.992,-1.04366 3.52,-1.27042 0.528,-0.22674 2.04,-0.72018 3.36,-1.09653 1.32,-0.37634 2.904,-0.87548 3.52,-1.1092 1.2079,-0.45828 3.45834,-1.1566 5.76,-1.78733 0.792,-0.21703 1.8,-0.5049 2.24,-0.63971 1.19469,-0.36604 4.12835,-1.19137 5.76,-1.62049 0.792,-0.20829 2.088,-0.55937 2.88,-0.78018 2.39456,-0.66761 3.43754,-0.92665 10.88,-2.70224 0.616,-0.14696 3.856,-0.80444 7.2,-1.46108 3.344,-0.65663 6.296,-1.26569 6.56,-1.35347 0.264,-0.0878 0.84,-0.19614 1.28,-0.2408 2.3648,-0.24005 7.91574,-1.20895 8.39565,-1.46544 0.30563,-0.16333 1.3591,-0.29697 2.34105,-0.29697 0.98202,0 2.04452,-0.1387 2.36132,-0.30822 0.3167,-0.16952 1.6392,-0.39693 2.9389,-0.50537 2.5064,-0.2091 3.3082,-0.2973 6.7942,-0.74734 1.2052,-0.15558 2.4659,-0.21102 2.8017,-0.12321 0.3358,0.0878 0.7932,0.008 1.0164,-0.17714 0.2232,-0.18525 2.1105,-0.41966 4.194,-0.52093 2.0835,-0.10126 3.9306,-0.27216 4.1047,-0.37977 0.1741,-0.10761 2.3541,-0.25317 4.8444,-0.32347 2.4902,-0.0703 5.5647,-0.27764 6.8322,-0.46074 1.5814,-0.22845 2.4976,-0.22958 2.9199,-0.004 0.4162,0.22276 1.2236,0.22666 2.4954,0.0121 2.4408,-0.41185 18.9187,-0.41177 21.3604,10e-5 1.2717,0.21452 2.0793,0.21059 2.4954,-0.0122 0.4222,-0.22592 1.3389,-0.22508 2.9199,0.003 1.2675,0.18261 4.2485,0.40684 6.6245,0.4983 2.376,0.0915 6.336,0.38027 8.8,0.64181 2.464,0.26154 5.56,0.55057 6.88,0.64227 1.32,0.0917 2.76,0.26148 3.2,0.37728 0.8421,0.22163 1.2825,0.27161 5.078,0.57631 1.2969,0.10412 2.5929,0.30476 2.88,0.44588 0.2871,0.14111 1.3752,0.2843 2.418,0.31818 1.0428,0.0339 2.0533,0.19217 2.2456,0.35176 0.1923,0.15959 1.1391,0.36588 2.104,0.45842 0.9649,0.0925 2.4056,0.3082 3.2014,0.47926 0.7959,0.17107 2.0199,0.38797 2.72,0.482 1.7337,0.23287 5.3146,0.9378 9.913,1.95149 2.112,0.46558 4.488,0.9656 5.28,1.11116 2.0717,0.38075 7.6131,1.73292 11.2,2.73297 0.792,0.22081 2.088,0.57189 2.88,0.78018 0.792,0.20829 2.232,0.60573 3.2,0.8832 0.968,0.27746 2.264,0.64693 2.88,0.82105 0.616,0.17411 1.696,0.49568 2.4,0.71461 0.704,0.21892 1.928,0.57618 2.72,0.79389 0.792,0.21771 1.944,0.59569 2.56,0.83996 0.616,0.24426 1.912,0.64661 2.88,0.89412 l 1.76,0.45001 1.8849,-1.80851 c 1.0368,-0.99468 7.7067,-7.56851 14.8222,-14.60851 7.1154,-7.04 16.3016,-16.112 20.4138,-20.16 4.1121,-4.048 17.5108,-17.296 29.7749,-29.44 12.264,-12.144 25.1256,-24.86321 28.5812,-28.26491 3.4557,-3.4017 11.2004,-11.0697 17.2105,-17.04 6.0101,-5.97015 11.0778,-10.85494 11.2617,-10.85494 0.1838,0 14.5664,14.148 31.9615,31.44 17.395,17.292 33.9633,33.73814 36.8183,36.54698 6.19,6.08979 6.066,4.75372 0.9148,9.85677 -42.5791,42.18163 -78.6906,77.88968 -87.3156,86.34031 -6.144,6.01978 -8.6236,8.64999 -8.4879,9.00359 0.1054,0.27475 2.3265,2.12893 4.9357,4.12038 2.6092,1.99149 4.816,3.70813 4.904,3.81475 0.088,0.10666 1.384,1.18644 2.88,2.39949 3.0275,2.45495 8.6013,7.15434 10.08,8.49875 0.528,0.48004 1.4943,1.35572 2.1474,1.94589 6.5643,5.93248 21.2672,20.51687 23.5885,23.39831 0.9547,1.18512 1.8519,2.15478 1.9938,2.15478 0.1418,0 0.7954,0.72 1.4524,1.6 1.52,2.03603 1.6065,2.02448 4.1935,-0.56 1.1892,-1.188 2.9502,-2.8823 3.9133,-3.76512 0.9631,-0.88282 2.3991,-2.3015 3.1911,-3.15264 0.792,-0.85114 3.5626,-3.58483 6.157,-6.07488 5.4612,-5.24173 5.8202,-5.59274 9.2134,-9.00736 1.3992,-1.408 3.0662,-3.064 3.7044,-3.68 0.6383,-0.616 2.3102,-2.272 3.7152,-3.68 2.2687,-2.27341 9.3193,-9.17699 11.1119,-10.88 1.2684,-1.20512 6.577,-6.52112 8.0181,-8.02938 0.792,-0.82886 2.3628,-2.38534 3.4907,-3.45884 1.1279,-1.07348 3.6485,-3.53578 5.6013,-5.47178 1.9529,-1.936 4.126,-4.02777 4.8293,-4.64837 0.7033,-0.62061 1.9089,-1.89252 2.6793,-2.82648 0.7703,-0.93396 2.2823,-2.39548 3.36,-3.24783 1.0776,-0.85236 2.5354,-2.2908 3.2394,-3.19653 0.704,-0.90574 2.432,-2.62444 3.84,-3.81933 1.408,-1.1949 3.1257,-2.87654 3.817,-3.737 0.6914,-0.86045 2.0475,-2.21246 3.0136,-3.00446 0.9661,-0.792 2.2004,-1.9196 2.743,-2.50577 2.094,-2.26239 4.9036,-5.08104 6.5932,-6.61423 0.9697,-0.88 2.2946,-2.248 2.9442,-3.04 l 1.181,-1.44 17.934,17.91893 c 9.8637,9.85541 17.934,18.08173 17.934,18.2807 0,0.19898 -0.756,0.98791 -1.68,1.75319 -1.6297,1.34974 -3.52,3.19841 -6.16,6.02446 -0.704,0.7536 -2.108,2.02422 -3.12,2.82365 -1.012,0.79942 -1.84,1.55872 -1.84,1.68733 0,0.44617 -4.1928,4.75984 -5.279,5.4311 -0.6005,0.37117 -2.0147,1.78314 -3.1426,3.13773 -1.1279,1.35459 -2.8985,3.1023 -3.9346,3.88374 -1.0361,0.78147 -2.5208,2.22147 -3.2994,3.2 -0.7786,0.97856 -2.2704,2.49917 -3.3152,3.37917 -1.0447,0.88 -2.4224,2.176 -3.0615,2.88 -1.2513,1.3785 -4.647,4.73574 -6.6509,6.57558 -0.6802,0.62458 -2.1067,2.06458 -3.1699,3.2 -1.0632,1.13543 -2.8632,2.929 -4,3.98573 -1.1368,1.05671 -2.7301,2.64071 -3.5408,3.52 -0.8106,0.87927 -2.1952,2.17469 -3.0768,2.87869 -0.8816,0.704 -1.9861,1.81222 -2.4545,2.46275 -0.4683,0.6505 -1.8113,2.0185 -2.9844,3.04 -1.1731,1.02147 -2.7893,2.56231 -3.5916,3.424 -1.9189,2.0609 -4.3267,4.45642 -6.4664,6.43325 -0.9525,0.88 -2.3034,2.24883 -3.0021,3.04186 -0.6987,0.79302 -2.0623,2.08902 -3.0303,2.88 -0.968,0.79097 -2.1166,1.87014 -2.5525,2.39814 -0.8918,1.08032 -4.3543,4.53619 -6.2657,6.25386 -0.694,0.62361 -2.126,2.06361 -3.1823,3.2 -1.0562,1.13638 -2.8562,2.9384 -4,4.00448 -1.1437,1.06608 -3.0833,2.97408 -4.3102,4.24 -1.2268,1.26592 -2.3208,2.30166 -2.431,2.30166 -0.3474,0 -1.3893,1.0608 -2.7695,2.81984 l -1.3338,1.69984 1.5825,2.35571 c 0.8704,1.29565 1.5825,2.41875 1.5825,2.49581 0,0.0771 0.6942,1.20406 1.5426,2.50445 0.8484,1.30038 2.0731,3.30035 2.7215,4.44435 0.6484,1.144 1.529,2.656 1.9569,3.36 0.4278,0.704 1.2405,2.144 1.806,3.2 0.5654,1.056 1.3765,2.4727 1.8023,3.14822 1.1861,1.88132 6.2079,11.59882 8.4607,16.37178 0.7476,1.584 1.4742,2.928 1.6147,2.98666 0.1404,0.0587 0.2553,0.23475 0.2553,0.39126 0,0.28432 0.9133,2.42144 2.4538,5.74208 0.4491,0.968 0.9365,2.048 1.0831,2.4 0.1467,0.352 0.6473,1.504 1.1125,2.56 1.2786,2.90214 1.7035,3.88592 2.2461,5.2 0.2725,0.66 0.6325,1.45005 0.8,1.75565 0.1675,0.30563 0.3045,0.77558 0.3045,1.04435 0,0.26877 0.137,0.73872 0.3045,1.04435 0.2807,0.51219 1.0071,2.20691 1.6098,3.75565 0.8791,2.25898 1.3838,3.60746 2.5751,6.88 0.7367,2.024 1.4484,3.968 1.5814,4.32 0.1329,0.352 0.4896,1.432 0.7927,2.4 0.3029,0.968 0.6669,2.048 0.8088,2.4 0.1418,0.352 0.6549,1.936 1.1402,3.52 0.4852,1.584 1.0615,3.384 1.2805,4 0.219,0.616 0.5726,1.768 0.7857,2.56 0.2131,0.792 0.5886,2.0208 0.8344,2.73069 0.2458,0.70989 0.4469,1.60141 0.4469,1.98112 0,0.37974 0.1281,0.7696 0.2846,0.86633 0.1566,0.0968 0.3573,0.64525 0.4461,1.21888 0.089,0.57364 0.4003,1.83498 0.6923,2.80298 0.6628,2.19674 1.1497,4.12656 2.4222,9.6 0.5523,2.376 1.1371,4.65078 1.2995,5.05507 0.1624,0.40426 0.2953,1.15178 0.2953,1.66109 0,0.50934 0.144,1.01507 0.32,1.12384 0.176,0.10877 0.3217,0.72928 0.3238,1.37888 0,0.64963 0.4341,3.04429 0.96,5.3215 0.5259,2.27722 0.9562,4.66042 0.9562,5.296 0,0.63559 0.1326,1.29242 0.2947,1.45962 0.1621,0.1672 0.347,1.024 0.411,1.904 0.064,0.88 0.2013,1.744 0.3053,1.92 0.104,0.176 0.2865,1.184 0.4055,2.24 0.1191,1.056 0.3598,2.712 0.5349,3.68 0.7695,4.25475 1.7192,12.22387 2.0535,17.23213 0.086,1.29369 0.2493,2.50137 0.362,2.68374 0.1127,0.1824 0.2625,2.00394 0.3329,4.04787 0.07,2.04394 0.2571,4.19504 0.4149,4.78023 0.1578,0.58518 0.1735,1.37062 0.035,1.74544 -0.1386,0.37485 -0.1324,1.21417 0.014,1.86518 0.2464,1.09655 0.7238,11.17914 0.65,13.72541 -0.04,1.36483 -0.035,12.9016 0.01,14.24 0.075,2.4735 -0.4143,12.81098 -0.658,13.89558 -0.1507,0.67079 -0.1585,1.42605 -0.017,1.67837 0.1412,0.25232 0.1239,1.04999 -0.038,1.77258 -0.1624,0.72262 -0.2997,2.01126 -0.3052,2.86365 -0.014,2.10262 -0.2115,4.56972 -0.7879,9.82512 -0.2675,2.43942 -0.4109,4.55756 -0.3185,4.70697 0.092,0.14944 0.032,0.52957 -0.1349,0.84471 -0.2505,0.47424 -1.0906,5.90112 -1.8224,11.77302 -0.4727,3.79261 -1.179,8.07853 -1.4239,8.64 -0.1536,0.352 -0.3447,1.288 -0.4247,2.08 -0.08,0.792 -0.4463,2.808 -0.8139,4.48 -0.3676,1.672 -0.6951,3.472 -0.7279,4 -0.033,0.528 -0.1579,1.104 -0.2783,1.28 -0.1205,0.176 -0.3034,0.824 -0.4067,1.44 -0.177,1.05619 -0.554,2.77523 -1.632,7.44115 -0.5731,2.48061 -2.487,9.82791 -3.3966,13.03885 -0.3739,1.32 -0.7952,2.904 -0.9361,3.52 -0.2533,1.10739 -0.4727,1.79482 -0.9701,3.04 -0.1406,0.352 -0.5057,1.576 -0.8113,2.72 -0.3056,1.144 -0.7535,2.53376 -0.9953,3.08835 -0.2418,0.55463 -0.4416,1.20263 -0.444,1.44 0,0.23741 -0.4419,1.65565 -0.9767,3.15165 -0.5348,1.496 -1.2714,3.656 -1.6368,4.8 -0.3655,1.144 -0.7899,2.2168 -0.9433,2.384 -0.1534,0.1672 -0.2789,0.6064 -0.2789,0.976 0,0.3696 -0.1243,0.8088 -0.2763,0.976 -0.1519,0.1672 -0.6724,1.456 -1.1565,2.864 -0.4842,1.408 -1.0945,3.064 -1.3563,3.68 -0.2619,0.616 -0.5979,1.408 -0.7467,1.76 -0.1488,0.352 -0.6567,1.648 -1.1288,2.88 -0.9172,2.39376 -1.7368,4.32637 -2.7229,6.42102 -0.3369,0.71559 -0.6125,1.40557 -0.6125,1.53335 0,0.12777 -0.4451,1.1983 -0.9891,2.37897 -0.5441,1.18068 -1.3543,2.93866 -1.8005,3.90666 -3.1151,6.75795 -5.2451,11.18806 -6.1544,12.8 -0.3475,0.616 -0.9777,1.84 -1.4006,2.72 -1.1426,2.37776 -3.7483,7.25571 -5.6408,10.56 -0.4032,0.704 -1.3745,2.41046 -2.1584,3.79216 -0.7839,1.38166 -1.9182,3.28275 -2.5207,4.22461 -0.6025,0.94189 -1.0955,1.78749 -1.0955,1.87913 0,0.23143 -7.0571,11.40173 -8.8094,13.9441 -0.7886,1.144 -2.189,3.20006 -3.1122,4.56902 -0.9231,1.36896 -1.8328,2.66506 -2.0215,2.8802 -0.1886,0.21516 -0.9751,1.3271 -1.7476,2.47097 -0.7726,1.14391 -1.483,2.15181 -1.5788,2.23981 -0.096,0.088 -0.8131,1.024 -1.5941,2.08 -0.7809,1.056 -2.5551,3.36 -3.9427,5.12 -1.3875,1.76 -2.8027,3.56 -3.1449,4 -1.0035,1.29014 -6.3027,7.73981 -7.3618,8.96 -0.5347,0.616 -1.2464,1.46179 -1.5814,1.87952 -1.1705,1.45926 -7.5229,8.48317 -9.5856,10.59891 -12.3315,12.64826 -18.4191,18.84714 -28.2847,28.80157 -6.3668,6.424 -22.1477,22.408 -35.0687,35.52 -12.9211,13.112 -28.6125,28.97853 -34.8697,35.25898 -23.1948,23.2806 -35.3494,35.55452 -57.9325,58.50102 -21.8639,22.2157 -30.3699,30.8071 -58.2444,58.8288 -13.2324,13.3023 -25.0493,25.2588 -58.2432,58.9312 -12.7521,12.936 -28.3002,28.6497 -34.55125,34.9193 -15.99619,16.0436 -31.44787,31.6559 -58.39385,59.0007 -12.83402,13.024 -28.52695,28.8929 -34.87316,35.2642 -23.21366,23.3056 -35.09523,35.3024 -57.77542,58.3358 -39.21341,39.8241 -46.04336,46.4 -48.19261,46.4 -0.12656,0 -0.67571,0.3266 -1.22032,0.7258 -0.54461,0.3992 -1.92621,1.1367 -3.07021,1.6389 -1.144,0.5021 -2.32291,1.0351 -2.61977,1.1842 -2.63933,1.3262 -12.4625,4.0205 -13.13744,3.6034 -0.1328,-0.082 -0.69427,0.1111 -1.24771,0.4292 -0.75376,0.4333 -1.04164,0.4781 -1.14733,0.1785 -0.16736,-0.4745 -1.04775,-0.5417 -1.04775,-0.08 0,0.5034 -10.13756,0.4252 -10.37334,-0.08 -0.14931,-0.32 -0.224,-0.32 -0.37331,0 -0.25031,0.5363 -1.15581,0.4862 -1.66595,-0.092 z m 17.5488,-140.9298 c 5.02493,-5.0259 19.55696,-19.722 32.29341,-32.658 12.73645,-12.936 28.31722,-28.704 34.62394,-35.04 6.30672,-6.336 16.7686,-16.848 23.24864,-23.36 6.48003,-6.512 22.20416,-22.424 34.94252,-35.36 25.17543,-25.566 40.2954,-40.8394 57.92957,-58.5174 6.25587,-6.2714 21.80048,-21.9866 34.54359,-34.9226 22.94974,-23.29706 35.64534,-36.13309 58.24214,-58.88618 25.602,-25.7791 36.0252,-36.31436 58.2476,-58.87382 21.6665,-21.9951 28.4063,-28.80016 58.0825,-58.64454 11.3574,-11.42176 24.9859,-25.22455 43.8349,-44.39546 11.4474,-11.64285 14.8,-15.24086 19.5302,-20.96 1.1646,-1.408 2.4295,-2.9321 2.8111,-3.38691 0.3815,-0.45482 0.9817,-1.22675 1.3337,-1.71546 0.352,-0.4887 0.7922,-1.05261 0.9781,-1.25309 0.9626,-1.03769 6.2219,-8.16697 6.2219,-8.43414 0,-0.17117 0.2816,-0.56605 0.6258,-0.87754 0.3442,-0.31148 1.4039,-1.73782 2.3549,-3.1696 3.3525,-5.04745 6.6193,-10.10521 6.6193,-10.24806 0,-0.0795 0.72,-1.30538 1.6,-2.72422 0.88,-1.41888 1.6,-2.65738 1.6,-2.75223 0,-0.0949 0.3489,-0.70937 0.7754,-1.3656 1.392,-2.14201 7.41,-13.86432 9.648,-18.79315 0.3995,-0.88 1.0978,-2.40589 1.5515,-3.39088 0.4538,-0.98499 0.8251,-1.89098 0.8251,-2.01334 0,-0.12237 0.4309,-1.14404 0.9575,-2.2704 0.5266,-1.12637 1.2595,-2.88439 1.6285,-3.90666 0.3691,-1.0223 1.111,-2.93872 1.6487,-4.25872 0.5377,-1.32 1.3083,-3.408 1.7124,-4.64 0.4042,-1.232 1.0159,-3.032 1.3594,-4 1.0104,-2.84755 2.2965,-7.16019 2.2949,-7.696 0,-0.2728 0.1227,-0.6328 0.2744,-0.8 0.1517,-0.1672 0.4471,-0.952 0.6566,-1.744 1.516,-5.73226 2.9858,-11.58813 3.2128,-12.8 0.1485,-0.792 0.4856,-2.232 0.7492,-3.2 0.2636,-0.968 0.5829,-2.552 0.7096,-3.52 0.1266,-0.968 0.5195,-3.128 0.8729,-4.8 0.3534,-1.672 0.7105,-3.904 0.7934,-4.96 0.083,-1.056 0.2762,-2.07296 0.4295,-2.25987 0.2425,-0.29571 0.5398,-2.51482 0.7689,-5.74013 0.038,-0.528 0.1646,-1.32 0.2824,-1.76 0.1178,-0.44 0.2843,-1.952 0.3701,-3.36 0.086,-1.408 0.2952,-3.856 0.4655,-5.44 0.1703,-1.584 0.2362,-3.25427 0.1466,-3.71168 -0.09,-0.45744 0.069,-1.85296 0.3532,-3.10115 0.3407,-1.49773 0.4154,-2.46627 0.2196,-2.84829 -0.1735,-0.33856 -0.1892,-1.50877 -0.038,-2.81888 0.3493,-3.02294 0.3393,-13.22813 -0.016,-15.98413 -0.1869,-1.45139 -0.173,-2.43603 0.04,-2.83398 0.2265,-0.42307 0.2097,-1.06487 -0.055,-2.09584 -0.2095,-0.81735 -0.4354,-2.78205 -0.502,-4.36605 -0.067,-1.584 -0.1909,-3.528 -0.2763,-4.32 -0.085,-0.792 -0.2361,-2.664 -0.3352,-4.16 -0.099,-1.496 -0.3325,-3.584 -0.5188,-4.64 -0.1864,-1.056 -0.4005,-2.84326 -0.4759,-3.97171 -0.075,-1.12845 -0.2594,-2.20845 -0.4088,-2.4 -0.1494,-0.19155 -0.2932,-1.06829 -0.3195,-1.94829 -0.026,-0.88 -0.2716,-2.37408 -0.5452,-3.32016 -0.2735,-0.94608 -0.5051,-2.2801 -0.5146,-2.96445 -0.01,-0.68438 -0.1441,-1.32281 -0.2994,-1.41875 -0.1552,-0.0959 -0.2822,-0.70685 -0.2822,-1.35763 0,-0.65079 -0.1515,-1.68627 -0.3367,-2.30112 -0.1852,-0.61485 -0.4578,-1.76589 -0.6058,-2.55789 -0.4931,-2.63869 -2.289,-9.70141 -3.7428,-14.72 -0.7903,-2.728 -1.635,-5.68 -1.8772,-6.56 -0.2421,-0.88 -0.8227,-2.608 -1.2902,-3.84 -0.4675,-1.232 -0.9201,-2.6 -1.0057,-3.04 -0.086,-0.44 -0.5058,-1.69904 -0.9337,-2.79786 -0.4279,-1.09878 -1.1357,-2.93478 -1.573,-4.08 -1.8493,-4.84393 -2.5083,-6.49436 -3.2307,-8.09088 -0.4203,-0.92883 -0.7642,-1.76572 -0.7642,-1.85984 0,-0.34454 -4.7996,-10.5584 -6.0014,-12.77142 -0.1912,-0.352 -0.7937,-1.60832 -1.3389,-2.79184 -1.4117,-3.06448 -1.7532,-3.1511 -3.8765,-0.98355 -0.9588,0.97875 -2.2767,2.17225 -2.9288,2.65225 -0.6521,0.48 -1.9344,1.76893 -2.8497,2.86426 -0.9152,1.09533 -2.6323,2.80768 -3.8158,3.80522 -1.1835,0.9975 -2.7505,2.57225 -3.4823,3.49942 -0.7318,0.92714 -2.3691,2.54973 -3.6385,3.6057 -1.2694,1.05596 -3.0281,2.75168 -3.9081,3.76819 -0.88,1.01654 -2.62,2.70598 -3.8667,3.7543 -1.2466,1.04832 -2.6544,2.43827 -3.1283,3.0888 -0.4739,0.6505 -1.8132,2.0185 -2.9761,3.04 -2.9063,2.55277 -3.9081,3.55232 -5.3421,5.32995 -0.6783,0.84084 -2.1183,2.22608 -3.2,3.07831 -1.0817,0.85222 -2.7258,2.46969 -3.6535,3.5944 -0.9276,1.1247 -2.5953,2.75808 -3.7058,3.62976 -1.1106,0.87165 -2.501,2.208 -3.0898,2.96963 -0.5887,0.76163 -2.0765,2.27363 -3.3062,3.36 -1.2296,1.08637 -2.8242,2.61766 -3.5436,3.40288 -1.7833,1.94669 -3.845,3.99283 -6.1384,6.09232 -1.0574,0.968 -2.5631,2.48 -3.346,3.36 -0.7829,0.88 -2.2155,2.24688 -3.1835,3.03747 -0.968,0.79063 -1.9636,1.72663 -2.2124,2.08 -0.5779,0.82074 -4.7247,4.92493 -5.8239,5.76407 -0.46,0.35116 -1.5853,1.54336 -2.5008,2.64934 -0.9153,1.10602 -2.5754,2.72685 -3.6889,3.60192 -1.1134,0.87504 -2.8227,2.56214 -3.7984,3.74909 -0.9756,1.18697 -2.523,2.73411 -3.4386,3.43811 -0.9157,0.704 -2.0366,1.712 -2.4911,2.24 -0.6897,0.80141 -3.3961,3.47738 -7.039,6.96 -0.4142,0.396 -1.7143,1.728 -2.889,2.96 -1.1748,1.232 -2.9965,3.032 -4.0484,4 -1.0519,0.968 -2.4878,2.3841 -3.191,3.14688 -2.2851,2.47882 -9.5676,9.59514 -10.7616,10.51603 -0.6397,0.49341 -2.0422,1.93152 -3.1167,3.19584 -1.0745,1.26432 -2.783,2.93799 -3.7969,3.71923 -1.0138,0.78128 -2.5418,2.29293 -3.3956,3.35924 -0.8538,1.0663 -2.3613,2.56064 -3.3502,3.32076 -0.9888,0.7601 -2.2342,1.88461 -2.7676,2.49888 -0.5335,0.61431 -2.1219,2.2282 -3.5299,3.58647 -1.408,1.35827 -3.2029,3.15968 -3.9887,4.00313 -0.7858,0.84343 -2.4368,2.46954 -3.6691,3.61354 -1.2322,1.144 -2.8933,2.79254 -3.6913,3.66342 -0.798,0.87088 -2.3648,2.45488 -3.4818,3.52 -1.8825,1.79504 -8.9115,8.58311 -10.7863,10.41658 -0.4499,0.44 -1.8704,1.88 -3.1567,3.2 -1.2863,1.32 -2.9703,2.98419 -3.7424,3.69824 -0.772,0.71402 -2.1415,2.08202 -3.0433,3.04 -0.9018,0.95795 -2.7018,2.74976 -4,3.98176 -1.2982,1.232 -3.0748,3.01712 -3.948,3.96694 -0.8731,0.94983 -2.1584,2.14055 -2.8563,2.64602 -0.6978,0.5055 -2.0265,1.83782 -2.9527,2.9607 -0.9263,1.12292 -2.3769,2.59549 -3.2237,3.27242 -0.8468,0.67693 -2.3317,2.09229 -3.2997,3.14525 -0.968,1.05296 -2.5393,2.63766 -3.4919,3.52157 -1.5177,1.40828 -8.6439,8.31616 -10.6611,10.33446 -0.3998,0.40003 -2.023,2.00784 -3.607,3.57286 -1.584,1.56506 -3.4552,3.46976 -4.1582,4.23268 -0.7031,0.76291 -2.1921,2.2511 -3.3089,3.3071 -1.1168,1.056 -3.8085,3.648 -5.9814,5.76 -2.173,2.112 -4.3306,4.2 -4.7947,4.64 -0.4642,0.44 -1.9706,1.952 -3.3477,3.36 -1.3771,1.408 -3.1305,3.1424 -3.8964,3.85424 -0.766,0.71184 -2.1979,2.15184 -3.1821,3.2 -0.9841,1.04816 -2.7841,2.84797 -4,3.99952 -1.2158,1.15158 -2.9306,2.86394 -3.8106,3.80522 -0.88,0.94128 -2.176,2.13321 -2.88,2.6487 -0.704,0.51549 -1.8661,1.68349 -2.5825,2.59558 -0.7163,0.91207 -2.1505,2.37796 -3.1869,3.25754 -1.0365,0.87955 -2.5383,2.30925 -3.33751,3.17712 -0.79917,0.86784 -2.2968,2.37984 -3.32803,3.36 -1.03124,0.98013 -3.72608,3.58208 -5.98855,5.78208 -2.26246,2.2 -4.48669,4.36 -4.94269,4.8 -0.456,0.44 -1.87084,1.88 -3.14409,3.2 -1.27325,1.32 -2.95731,2.98746 -3.74234,3.70544 -0.78505,0.71798 -2.29462,2.22998 -3.35462,3.36 -1.06003,1.13002 -2.71603,2.77456 -3.68,3.65456 -0.964,0.88 -2.54474,2.45002 -3.51274,3.4889 -0.968,1.03891 -2.44969,2.43718 -3.29267,3.10732 -0.84298,0.67012 -2.08384,1.91565 -2.75744,2.76781 -0.6736,0.85219 -2.13517,2.33389 -3.2479,3.29271 -2.37549,2.04684 -3.43408,3.09302 -5.51309,5.44854 -0.84211,0.95408 -2.21011,2.22627 -3.04,2.82704 -0.82989,0.60077 -2.14375,1.89677 -2.91968,2.88 -0.77594,0.98323 -2.28483,2.50768 -3.35312,3.38768 -1.06826,0.88 -2.44941,2.1711 -3.06919,2.86909 -0.6198,0.69801 -2.20691,2.31497 -3.52691,3.59328 -3.73651,3.61843 -4.06585,3.94435 -6.56627,6.49763 -1.29267,1.32 -3.11888,3.12 -4.05827,4 -0.93936,0.88 -2.28115,2.25366 -2.9817,3.05258 -0.70057,0.79891 -2.09165,2.09491 -3.09129,2.88 -0.99965,0.78508 -2.24378,2.01628 -2.76477,2.736 -0.52096,0.71974 -1.93248,2.15974 -3.13671,3.2 -1.20422,1.04028 -2.76806,2.52688 -3.47523,3.30358 -1.75926,1.93219 -4.18419,4.35373 -6.27661,6.26784 -0.96195,0.88 -2.327,2.26077 -3.0334,3.06835 -0.7064,0.80762 -2.16061,2.17562 -3.23156,3.04 -1.07097,0.86442 -2.52809,2.30768 -3.23804,3.20723 -0.70996,0.89959 -2.12746,2.33959 -3.14999,3.2 -1.02253,0.86045 -2.51097,2.27447 -3.30765,3.14234 -0.79667,0.86784 -2.29721,2.37984 -3.33449,3.36 -2.84112,2.68461 -5.02605,4.86752 -6.28573,6.27994 -0.62246,0.69788 -1.91798,1.91539 -2.87898,2.70553 -0.96099,0.79015 -1.9558,1.72461 -2.21072,2.07661 -0.94166,1.30035 -4.60044,4.94355 -5.79856,5.77382 -0.68012,0.47133 -1.81571,1.624 -2.52352,2.56151 -0.70784,0.9375 -2.47712,2.71859 -3.93174,3.95798 -1.45462,1.23939 -3.29277,3.02125 -4.08477,3.95971 -0.792,0.93844 -2.232,2.34013 -3.2,3.11488 -0.968,0.77476 -2.192,1.91764 -2.72,2.53968 -0.97478,1.14845 -3.58557,3.76829 -6.43085,6.45306 -0.86304,0.81437 -2.45142,2.39837 -3.52972,3.52 -1.07834,1.12166 -2.73434,2.75936 -3.68,3.63936 -0.9457,0.88 -2.29543,2.252 -2.99943,3.04893 -0.704,0.79689 -2.06848,2.09289 -3.03219,2.88 -0.96368,0.78707 -2.03379,1.79107 -2.37798,2.23107 -0.70973,0.90723 -4.48125,4.63981 -6.62845,6.56 -0.78723,0.704 -1.85658,1.83565 -2.37635,2.51475 -0.51978,0.67914 -2.02503,2.14163 -3.34503,3.24999 -1.32,1.10838 -3.04125,2.78864 -3.82499,3.73392 -0.78374,0.94531 -2.13651,2.29081 -3.00621,2.99001 -0.86966,0.69923 -2.10041,1.83837 -2.73501,2.53146 -1.59644,1.74355 -4.71059,4.85424 -6.60736,6.6 -0.87254,0.80304 -2.45248,2.38704 -3.51097,3.52 -1.0585,1.13293 -2.71655,2.77987 -3.68458,3.65987 -0.96803,0.88 -2.55001,2.46512 -3.51549,3.5225 -0.96547,1.05734 -2.34233,2.35334 -3.05968,2.88 -0.71737,0.52662 -2.20774,2.01036 -3.31193,3.29721 -1.10423,1.28682 -2.90858,3.04768 -4.0097,3.91303 -1.10115,0.86537 -2.34675,2.08262 -2.76806,2.70505 -0.42131,0.62243 -1.69047,1.95757 -2.82039,2.96695 -2.46691,2.20384 -4.11779,3.82131 -6.29088,6.16352 -0.89388,0.96345 -2.35046,2.32774 -3.23683,3.03174 -0.88637,0.704 -1.99475,1.81222 -2.4631,2.46275 -0.46832,0.6505 -1.8112,2.0185 -2.98413,3.04 -1.17293,1.02147 -2.78915,2.57005 -3.59165,3.44125 -1.69395,1.839 -4.01619,4.1474 -6.45693,6.4183 -0.94716,0.8812 -2.46582,2.4194 -3.37481,3.4182 -0.90899,0.9988 -2.26608,2.2603 -3.01575,2.8033 -0.74966,0.5431 -1.72614,1.4529 -2.16992,2.0218 -0.44377,0.5689 -1.96668,2.1434 -3.38425,3.4988 -3.30602,3.1612 -3.66695,3.5205 -6.0432,6.0156 -1.08947,1.144 -2.91536,2.9496 -4.05751,4.0125 -1.14217,1.0629 -2.96512,2.8725 -4.05104,4.0212 -1.08588,1.1488 -2.45388,2.4181 -3.04,2.8207 -0.58608,0.4026 -1.56281,1.3812 -2.17049,2.1746 -0.60768,0.7934 -1.96096,2.1825 -3.0073,3.0868 -1.04633,0.9043 -2.56515,2.3475 -3.37513,3.207 -2.09898,2.2275 -4.47552,4.5859 -6.48669,6.4372 -0.956,0.88 -2.25475,2.2123 -2.88615,2.9607 -0.63139,0.7484 -1.99216,2.0428 -3.02393,2.8765 -1.03178,0.8338 -2.22813,1.9495 -2.65856,2.4794 -0.43043,0.5299 -1.94243,2.0724 -3.36,3.4278 -3.91453,3.743 -3.94055,3.7688 -6.3984,6.3356 -1.26394,1.32 -3.08128,3.1247 -4.03853,4.0106 -0.95725,0.8858 -2.64416,2.5618 -3.74867,3.7243 -1.10455,1.1627 -2.47255,2.4421 -3.04,2.8432 -0.56749,0.4012 -1.76061,1.6052 -2.65139,2.6756 -0.89079,1.0705 -2.64167,2.8103 -3.89082,3.8663 -1.24918,1.056 -2.86573,2.6786 -3.59238,3.6058 -0.72663,0.9271 -2.35975,2.5409 -3.62916,3.5862 -1.2694,1.0452 -2.932,2.6867 -3.69462,3.6476 -0.76262,0.961 -2.18928,2.3712 -3.1703,3.1338 -0.98106,0.7626 -2.22909,1.8807 -2.77341,2.4846 -3.00429,3.3331 -4.92135,5.2544 -5.70416,5.7169 -1.26557,0.7476 -5.43424,5.7649 -5.18045,6.2351 0.11584,0.2145 4.07024,4.278 8.78758,9.03 10.24884,10.3242 27.47751,27.6952 43.52205,43.8818 6.43207,6.489 22.19408,22.4542 35.02663,35.4782 32.85232,33.3424 41.6992,42.0821 42.34944,41.8361 0.29107,-0.1101 4.64051,-4.3122 9.6654,-9.3381 z M 607.81715,1073.9372 c 0.86743,-0.8015 3.41856,-3.2572 5.66919,-5.4572 2.25065,-2.2 4.47184,-4.36 4.936,-4.8 0.46419,-0.44 1.8031,-1.808 2.97539,-3.04 1.17229,-1.232 2.92137,-2.96 3.88685,-3.84 0.9655,-0.88 2.47542,-2.3979 3.35542,-3.3731 0.88,-0.9752 2.23888,-2.2712 3.01971,-2.88 0.78087,-0.6088 1.78762,-1.5389 2.23722,-2.0669 1.07136,-1.2581 4.64701,-4.8213 6.26496,-6.2432 0.70297,-0.6177 1.91507,-1.8919 2.69357,-2.8315 0.77852,-0.9396 2.18864,-2.2921 3.13363,-3.0055 0.94496,-0.7135 2.59817,-2.3193 3.67379,-3.5685 1.07558,-1.2492 2.86253,-2.9961 3.97098,-3.882 1.10844,-0.8859 2.43308,-2.1874 2.94364,-2.8923 0.5106,-0.7048 1.91085,-2.14 3.11172,-3.1892 1.20089,-1.0493 2.77008,-2.551 3.4871,-3.337 1.57488,-1.7266 3.89619,-4.0368 6.44906,-6.4181 1.04204,-0.9721 2.79833,-2.7201 3.90284,-3.8844 1.10455,-1.1644 2.47255,-2.4453 3.04,-2.8464 0.56749,-0.4012 1.76061,-1.6052 2.6514,-2.6756 0.89078,-1.0705 2.63852,-2.8103 3.8839,-3.8663 1.24534,-1.056 2.98554,-2.79565 3.86704,-3.86592 0.8815,-1.07024 2.51907,-2.67504 3.63901,-3.56621 1.11993,-0.89117 2.7152,-2.46349 3.54502,-3.49408 0.82986,-1.03059 2.50509,-2.66579 3.72275,-3.63379 1.21767,-0.968 2.4393,-2.1319 2.71476,-2.58646 0.27545,-0.45456 1.62291,-1.85194 2.99436,-3.10532 2.90333,-2.65331 3.17354,-2.91692 6.46631,-6.30822 1.36707,-1.408 3.19248,-3.208 4.05641,-4 0.86394,-0.792 2.18864,-2.16 2.94378,-3.04 0.7551,-0.88 2.21082,-2.248 3.23488,-3.04 1.02406,-0.792 2.18749,-1.90608 2.58538,-2.47571 0.39785,-0.56963 1.82214,-2.03901 3.16508,-3.26528 3.03773,-2.77386 3.4441,-3.17056 6.08384,-5.93901 1.17476,-1.232 2.99581,-3.03888 4.04688,-4.01533 1.05104,-0.97641 2.63098,-2.52518 3.51098,-3.44166 0.88,-0.91651 3.65347,-3.64563 6.1633,-6.06471 5.28976,-5.09849 5.75968,-5.56243 8.66835,-8.5583 1.19613,-1.232 2.88435,-2.88883 3.75158,-3.68189 0.86723,-0.79302 2.29677,-2.20531 3.17677,-3.1384 1.27568,-1.35264 6.48378,-6.43869 12.02141,-11.73971 0.36771,-0.352 1.70285,-1.72 2.96694,-3.04 1.2641,-1.32 3.08887,-3.12 4.05501,-4 0.96614,-0.88 2.37322,-2.33667 3.12678,-3.23706 0.7536,-0.90038 2.13607,-2.19638 3.0722,-2.88 0.93609,-0.68361 2.08512,-1.77216 2.55334,-2.41897 0.46826,-0.64682 1.88221,-2.08682 3.14211,-3.2 1.25994,-1.11319 2.87834,-2.66394 3.59648,-3.44615 1.14816,-1.25056 2.37079,-2.46089 6.87546,-6.80656 0.59933,-0.5782 2.15629,-2.13126 3.45987,-3.45126 2.17114,-2.19843 9.65517,-9.52099 11.28349,-11.04 0.37731,-0.352 1.97401,-1.936 3.54819,-3.52 1.57418,-1.584 3.38442,-3.384 4.02272,-4 0.63834,-0.616 2.23315,-2.2 3.5441,-3.52 1.31094,-1.32 4.24076,-4.2 6.51075,-6.4 2.26998,-2.2 4.42381,-4.288 4.7863,-4.64 0.36247,-0.352 1.7033,-1.72 2.97959,-3.04 1.27632,-1.32 2.96288,-2.976 3.7479,-3.68 0.78506,-0.704 2.26045,-2.216 3.27869,-3.36 1.01821,-1.144 2.54064,-2.57459 3.38317,-3.1791 0.84249,-0.60452 1.91683,-1.63472 2.38736,-2.28935 0.47056,-0.65462 1.95718,-2.176 3.30361,-3.38086 1.34647,-1.2049 2.96704,-2.75994 3.60131,-3.45568 1.35226,-1.48327 4.48951,-4.59434 6.47524,-6.42112 0.76889,-0.70733 2.19312,-2.14733 3.16496,-3.2 0.97184,-1.05264 2.77475,-2.84989 4.00649,-3.99389 1.23171,-1.144 2.77389,-2.67635 3.42701,-3.40518 0.65315,-0.72887 1.79904,-1.80887 2.5464,-2.4 0.74739,-0.59117 1.79408,-1.57341 2.32602,-2.18282 1.03347,-1.18406 3.7918,-3.94333 6.60262,-6.60496 0.94845,-0.89811 2.62003,-2.56848 3.71459,-3.71197 1.09456,-1.14345 2.46256,-2.40893 3.04,-2.81216 0.57744,-0.4032 1.68474,-1.54083 2.46067,-2.52803 0.77594,-0.98717 2.28484,-2.51488 3.35312,-3.39488 1.06826,-0.88 2.44941,-2.16736 3.06919,-2.86083 1.40166,-1.56819 4.55862,-4.7217 6.43235,-6.42528 0.77802,-0.70733 2.2097,-2.14733 3.18154,-3.2 0.97184,-1.05264 2.77184,-2.85501 4,-4.00528 1.22816,-1.15027 2.88102,-2.7929 3.67302,-3.65024 0.792,-0.85738 2.1297,-2.10653 2.97267,-2.77594 0.84298,-0.66937 2.09056,-1.92278 2.77235,-2.78534 0.68183,-0.86256 2.07648,-2.27226 3.09924,-3.13267 1.02275,-0.86045 2.5112,-2.26948 3.30764,-3.13117 1.83168,-1.98176 4.23578,-4.38032 6.44816,-6.43325 0.94836,-0.88 2.4736,-2.41923 3.38941,-3.42051 0.91581,-1.00128 2.46282,-2.40983 3.43783,-3.13011 0.97497,-0.72026 1.7727,-1.43149 1.7727,-1.58052 0,-0.47091 4.13962,-4.76406 5.2633,-5.45856 0.5919,-0.36579 1.89955,-1.67148 2.90588,-2.90153 1.00634,-1.23005 2.78394,-2.98816 3.95028,-3.90698 1.1663,-0.91878 2.33062,-1.96105 2.58739,-2.31616 0.90393,-1.25008 3.70979,-4.11286 5.17411,-5.27904 0.81453,-0.6487 2.37034,-2.21277 3.45731,-3.47571 1.08698,-1.26294 2.76167,-2.88918 3.72151,-3.61389 0.95984,-0.72467 2.45763,-2.22422 3.32844,-3.33232 0.87082,-1.10806 2.5617,-2.80003 3.75754,-3.75993 1.19584,-0.95988 2.96624,-2.67751 3.93424,-3.81693 0.968,-1.13946 2.732,-2.83843 3.92,-3.77552 1.188,-0.93709 2.16,-1.79815 2.16,-1.91351 0,-0.45142 3.68298,-4.24678 5.4124,-5.57756 1.0049,-0.77325 2.4373,-2.19684 3.1831,-3.16356 0.7458,-0.96672 2.3929,-2.62553 3.6603,-3.68627 1.2673,-1.06073 3.0962,-2.85021 4.0642,-3.97654 0.968,-1.12637 2.552,-2.68045 3.52,-3.45354 0.968,-0.77305 2.5415,-2.32931 3.4967,-3.45837 0.9552,-1.12902 2.6909,-2.83225 3.8571,-3.78496 1.1662,-0.95273 2.7434,-2.51305 3.505,-3.46742 0.7615,-0.95437 1.9778,-2.20586 2.7029,-2.78109 0.7251,-0.57523 3.1386,-2.84665 5.3635,-5.04765 2.2248,-2.20102 4.4183,-4.36182 4.8744,-4.80182 0.4561,-0.44 2.076,-2.03978 3.5998,-3.55504 1.5238,-1.5153 3.2674,-3.2433 3.8746,-3.84 0.6073,-0.59674 2.0021,-2.02096 3.0996,-3.16496 1.0974,-1.144 2.7835,-2.8 3.7468,-3.68 0.9633,-0.88 2.3203,-2.25536 3.0156,-3.05632 0.6952,-0.80099 2.0995,-2.13456 3.1207,-2.96349 1.0212,-0.82893 2.5809,-2.37737 3.4661,-3.44096 0.8851,-1.06361 2.6416,-2.7832 3.9033,-3.82128 1.2616,-1.03811 2.8699,-2.62022 3.5739,-3.51581 0.704,-0.89561 1.928,-2.15788 2.72,-2.80505 1.4827,-1.21155 3.1337,-2.83251 5.92,-5.81219 0.88,-0.94109 2.104,-2.08221 2.72,-2.53584 0.616,-0.4536 1.5493,-1.33421 2.0739,-1.9569 0.5247,-0.62269 2.1087,-2.23258 3.52,-3.57757 1.4114,-1.34496 3.2141,-3.14496 4.0061,-4 0.792,-0.85501 2.3718,-2.41859 3.5107,-3.47459 1.1389,-1.056 3.4785,-3.3761 5.199,-5.15578 1.7205,-1.77968 3.6995,-3.63161 4.3976,-4.11539 0.6981,-0.48381 1.8546,-1.65491 2.57,-2.60249 0.7155,-0.94759 2.4127,-2.67108 3.7718,-3.82996 1.359,-1.15888 3.1351,-2.92713 3.947,-3.92947 0.8118,-1.00233 2.4678,-2.63603 3.68,-3.63046 1.2121,-0.99443 2.8497,-2.58426 3.6389,-3.53296 0.7893,-0.94871 2.3961,-2.52647 3.5707,-3.50615 1.1746,-0.97968 2.9048,-2.68649 3.845,-3.79289 0.9401,-1.10643 2.7507,-2.88755 4.0235,-3.95805 1.2728,-1.07053 2.8966,-2.70294 3.6084,-3.62758 0.7118,-0.92464 2.2092,-2.40032 3.3277,-3.2793 1.1184,-0.87894 2.8487,-2.55299 3.845,-3.72013 0.9963,-1.1671 2.6335,-2.78528 3.6381,-3.5959 1.0046,-0.81066 2.1146,-1.83267 2.4666,-2.27114 1.4439,-1.79859 4.4502,-4.81555 5.576,-5.59571 0.6614,-0.45837 1.9433,-1.7577 2.8486,-2.88742 0.9053,-1.1297 2.6433,-2.85981 3.8622,-3.84468 1.219,-0.98489 2.8603,-2.57292 3.6474,-3.52896 0.787,-0.95606 2.3294,-2.49817 3.4274,-3.42694 1.098,-0.92874 2.3735,-2.12064 2.8346,-2.64864 0.8466,-0.96957 3.9316,-4.0231 6.4921,-6.42595 0.7655,-0.71827 2.2652,-2.23027 3.3329,-3.36 1.0676,-1.12973 2.7236,-2.77827 3.68,-3.66339 0.9563,-0.88516 2.5608,-2.49328 3.5656,-3.57364 1.0047,-1.08035 2.3727,-2.36937 3.04,-2.86454 0.6672,-0.49514 1.5645,-1.33501 1.9937,-1.86637 0.4294,-0.53136 1.9414,-2.06336 3.36,-3.40445 1.4188,-1.34105 3.2231,-3.14105 4.0097,-4 0.7867,-0.85891 2.3496,-2.42566 3.4733,-3.48166 1.1236,-1.056 3.8812,-3.72 6.128,-5.92 2.2468,-2.2 4.2371,-4.144 4.423,-4.32 0.1858,-0.176 1.8081,-1.77648 3.6051,-3.55664 1.7969,-1.78013 3.6166,-3.58013 4.0437,-4 0.4271,-0.41984 1.7642,-1.77136 2.9712,-3.00336 1.207,-1.232 3.5735,-3.608 5.2589,-5.28 3.9584,-3.92688 4.1872,-3.45923 -7.4934,-15.31562 -2.376,-2.41174 -4.5553,-4.66838 -4.8429,-5.01468 -0.2876,-0.34634 -1.8587,-1.8537 -3.4914,-3.3497 -1.6327,-1.496 -3.4328,-3.152 -4.0001,-3.68 -0.5674,-0.528 -1.7108,-1.536 -2.541,-2.24 -0.8303,-0.704 -1.7469,-1.51021 -2.0371,-1.79158 -0.2901,-0.28135 -1.7645,-1.50535 -3.2763,-2.72 -1.5118,-1.21463 -3.1678,-2.54848 -3.68,-2.96413 -1.3275,-1.07731 -8.0085,-6.15027 -9.2054,-6.9897 -0.5532,-0.388 -1.1611,-0.83859 -1.3509,-1.00134 -0.1898,-0.16275 -0.9818,-0.69482 -1.76,-1.1824 -0.7782,-0.48759 -1.4869,-0.97773 -1.5749,-1.08919 -0.088,-0.11145 -0.952,-0.69472 -1.92,-1.29612 -0.968,-0.60141 -2.1671,-1.42471 -2.6647,-1.8296 -2.088,-1.69901 -1.4699,-2.14493 -13.2303,9.54534 -5.9086,5.87328 -12.2091,12.11872 -14.0011,13.87872 -3.8867,3.81728 -26.8954,26.5824 -60.157,59.52 -13.3298,13.2 -26.7282,26.448 -29.7743,29.44 -3.0459,2.992 -15.8643,15.664 -28.4851,28.16 -12.6209,12.496 -26.31,26.032 -30.4202,30.08 -4.1103,4.048 -17.81293,17.59891 -30.45028,30.11312 -12.63737,12.51424 -25.44912,25.18624 -28.47059,28.16 -3.02147,2.97379 -15.38422,15.19888 -27.47283,27.16688 -12.08861,11.968 -24.90093,24.64 -28.47187,28.16 -3.57091,3.52 -16.89111,16.696 -29.60042,29.28 -12.70931,12.584 -25.52781,25.256 -28.48553,28.16 -2.95773,2.904 -15.76976,15.576 -28.4712,28.16 -12.70144,12.584 -25.42253,25.16176 -28.26906,27.95056 -2.84653,2.7888 -11.08106,10.9248 -18.29891,18.08 -21.39594,21.21011 -65.56151,64.90707 -69.23315,68.49856 -3.10535,3.03754 -34.29962,33.8943 -69.46436,68.71274 -7.66649,7.591 -16.55116,16.375 -19.74371,19.52 -26.7847,26.38574 -44.58406,44.15694 -44.50105,44.43074 0.10694,0.3527 4.65411,5.0128 23.04192,23.6143 26.02508,26.3274 26.95699,27.24 27.48803,26.9189 0.22864,-0.1383 1.12544,-0.9072 1.99286,-1.7086 z M 487.82131,944.34723 c 3.35427,-3.32902 8.54669,-8.45869 11.53869,-11.39923 5.62867,-5.5319 23.15478,-22.86362 47.84848,-47.31776 23.25786,-23.03216 63.7871,-63.11702 68.95152,-68.19542 2.64,-2.59607 15.528,-15.34144 28.64,-28.32311 13.112,-12.98166 26.73888,-26.46246 30.28192,-29.95737 7.51702,-7.41482 46.50416,-45.9785 66.64954,-65.92564 7.67171,-7.59619 16.46854,-16.29212 19.54854,-19.32428 3.08,-3.03216 15.93856,-15.75309 28.57459,-28.26874 C 802.49062,633.12006 815.75664,620 819.33462,616.48 c 3.57802,-3.52 16.39447,-16.192 28.48103,-28.16 12.08659,-11.968 24.95657,-24.69427 28.59997,-28.28058 3.64342,-3.58633 17.54739,-17.33833 30.89772,-30.56 13.35037,-13.22169 26.59837,-26.31932 29.44,-29.10585 2.84167,-2.78656 11.07802,-10.92256 18.30301,-18.08 34.01027,-33.69242 63.68415,-63.05616 68.12565,-67.41357 21.1481,-20.74787 44.3259,-43.87622 44.2371,-44.14272 -0.4753,-1.42586 -15.7858,-1.73638 -32.3791,-0.6567 -1.056,0.0687 -3.0151,0.18329 -4.3537,0.25465 -1.3385,0.0713 -2.5629,0.2096 -2.7209,0.30723 -0.1579,0.0976 -1.6548,0.28295 -3.3263,0.41178 -4.1485,0.31974 -4.5677,0.3649 -5.1191,0.55094 -0.264,0.0891 -2.424,0.41463 -4.8,0.7234 -2.376,0.30873 -4.4568,0.68512 -4.624,0.83638 -0.1672,0.15126 -0.8152,0.27693 -1.44,0.27923 -0.6248,0.003 -2.504,0.30035 -4.176,0.66231 -10.38243,2.24755 -11.96934,2.61574 -14.4,3.34112 -0.968,0.28889 -2.12,0.59308 -2.56,0.67603 -2.6689,0.50301 -20.06634,6.17411 -20.96,6.83238 -0.176,0.12967 -0.72128,0.33165 -1.21171,0.4489 -0.49047,0.11721 -1.78647,0.62137 -2.88,1.12032 -1.09357,0.49894 -2.34829,1.01872 -2.78829,1.15504 -0.44,0.13635 -1.592,0.6048 -2.56,1.04105 -3.49421,1.57479 -5.29174,2.37517 -5.92,2.63604 -1.59955,0.66416 -6.57734,3.11212 -8.27075,4.06736 -1.0289,0.58038 -2.04538,1.05526 -2.25882,1.05526 -0.21344,0 -1.24361,0.51747 -2.28925,1.14995 -1.66124,1.00483 -3.96028,2.32327 -6.06118,3.47591 -1.02093,0.56009 -5.89862,3.48041 -6.83043,4.0894 -0.46727,0.30538 -1.13757,0.68676 -1.48957,0.84749 -1.3039,0.59539 -18.12656,12.38208 -19.9,13.94282 -0.20902,0.18393 -0.85702,0.71331 -1.44,1.17635 -5.19744,4.12816 -9.55357,7.80042 -12.28704,10.35808 -0.56432,0.528 -2.65373,2.472 -4.64314,4.32 -1.9894,1.848 -3.91248,3.71146 -4.27347,4.14102 -0.36099,0.42957 -5.78009,5.90157 -12.04243,12.16 -14.84656,14.83725 -57.87667,58.43604 -59.00762,59.78743 -1.35036,1.6136 -8.39603,7.43155 -8.99974,7.43155 -0.12989,0 -0.47178,0.21322 -0.75974,0.47382 -0.70077,0.63418 -7.98938,4.32618 -8.54064,4.32618 -0.23917,0 -0.6849,0.13702 -0.99053,0.30451 -0.94867,0.51987 -2.75834,1.22909 -3.59565,1.40919 -2.5496,0.54838 -4.11622,0.92265 -5.01354,1.19782 -0.55747,0.17091 -1.70947,0.32224 -2.56,0.33626 -0.85056,0.0141 -1.72742,0.17139 -1.94857,0.34976 -0.49159,0.39651 -12.93322,0.44486 -13.56221,0.0527 -0.23962,-0.14941 -0.86768,-0.3055 -1.39568,-0.34691 -2.62544,-0.20586 -7.49888,-1.28378 -9.28,-2.05254 -0.352,-0.15194 -1.34854,-0.50957 -2.21453,-0.79472 -3.62278,-1.193 -9.73907,-4.46471 -12.82547,-6.86061 -3.98826,-3.09597 -1.29453,-0.44375 -30.39181,-29.92381 -19.55286,-19.81011 -37.46105,-37.92336 -48.51731,-49.07286 -1.15795,-1.16772 -2.73635,-2.6362 -6.85088,-6.37367 -1.232,-1.1191 -2.744,-2.50361 -3.36,-3.0767 -1.7697,-1.64634 -8.14877,-6.85616 -12,-9.80039 -1.936,-1.48009 -3.568,-2.80288 -3.62666,-2.93955 -0.0587,-0.13667 -0.27616,-0.24851 -0.48329,-0.24851 -0.20711,0 -0.74419,-0.34086 -1.19351,-0.75747 -0.76531,-0.70963 -1.40188,-1.16346 -4.61654,-3.29104 -0.704,-0.46595 -1.352,-0.94163 -1.44,-1.05709 -0.51981,-0.68202 -12.70394,-8.3344 -13.27008,-8.3344 -0.24013,0 -0.48458,-0.12259 -0.54326,-0.27238 -0.11335,-0.28954 -2.0512,-1.47149 -4.42666,-2.70007 -0.792,-0.4096 -2.016,-1.10688 -2.72,-1.5495 -0.704,-0.44263 -4.016,-2.14035 -7.36,-3.77277 -8.29888,-4.05117 -9.25667,-4.50528 -9.50227,-4.50528 -0.11719,0 -1.12314,-0.41741 -2.23539,-0.92755 C 578.46,385.6105 559.89117,379.0681 554.88,378.12365 c -0.44,-0.0829 -1.592,-0.39011 -2.56,-0.68266 -1.94573,-0.58797 -2.55181,-0.73373 -7.2,-1.73152 -1.76,-0.37779 -3.92342,-0.90214 -4.80765,-1.16521 -0.88419,-0.26308 -2.15027,-0.49869 -2.81347,-0.52365 -0.6632,-0.025 -1.28026,-0.16576 -1.37123,-0.31296 -0.091,-0.1472 -0.87888,-0.26765 -1.75088,-0.26765 -0.872,0 -1.83549,-0.14013 -2.14112,-0.31139 -0.71907,-0.40298 -11.26775,-1.90672 -14.79565,-2.10915 -1.496,-0.0859 -2.936,-0.24484 -3.2,-0.35332 -0.264,-0.10848 -1.416,-0.25401 -2.56,-0.32345 -1.144,-0.0694 -3.016,-0.1889 -4.16,-0.26547 -6.29206,-0.42119 -9.17642,-0.51898 -16,-0.54237 -4.136,-0.0141 -9.248,0.0778 -11.36,0.20429 -7.11056,0.42604 -7.99344,0.47699 -10.08182,0.58188 -1.14503,0.0575 -2.23268,0.1978 -2.417,0.31172 -0.18432,0.11392 -1.69552,0.30476 -3.35817,0.42406 -1.66266,0.11933 -3.49351,0.25085 -4.06855,0.29226 -0.57504,0.0414 -1.13904,0.16883 -1.25331,0.28313 -0.1143,0.11431 -0.65181,0.21085 -1.19449,0.21456 -0.54266,0.004 -2.64266,0.29751 -4.66666,0.6529 -2.024,0.35536 -4.256,0.71427 -4.96,0.79763 -1.17578,0.13917 -4.41878,0.7969 -9.28,1.88211 -7.90966,1.76573 -11.12566,2.57744 -15.2,3.83648 -1.32,0.40791 -3.264,0.9928 -4.32,1.29978 -3.46218,1.00649 -11.19021,3.70656 -11.50246,4.01881 -0.16804,0.16804 -0.55524,0.30554 -0.86045,0.30554 -0.47632,0 -1.43533,0.3543 -5.23709,1.93482 -0.352,0.14633 -2.3888,0.98899 -4.52624,1.87254 -6.12486,2.53184 -9.69328,4.23146 -18.51376,8.81798 -1.76,0.91517 -3.704,1.95316 -4.32,2.30663 -0.616,0.35347 -1.768,1.00611 -2.56,1.45033 -2.10266,1.17933 -4.3912,2.55511 -6.46464,3.88628 -1.00352,0.64428 -1.89069,1.17142 -1.97146,1.17142 -0.70297,0 -18.55641,12.65568 -21.6439,15.34259 -1.79984,1.56631 -2.17258,1.86826 -2.6376,2.13661 -0.55098,0.31795 -2.97632,2.3617 -4.51046,3.8008 -0.56288,0.528 -1.72775,1.536 -2.58858,2.24 -3.50106,2.8632 -17.11228,16.25373 -19.72121,19.40147 -0.52945,0.63879 -1.42603,1.66215 -1.9924,2.27408 -4.00595,4.32832 -9.33236,10.94791 -14.35843,17.84445 -4.54965,6.24282 -13.00542,19.20499 -13.67308,20.95997 -0.067,0.176 -0.29771,0.53603 -0.51278,0.80003 -0.21506,0.264 -0.96976,1.56 -1.67711,2.88 -0.70735,1.32 -1.61621,2.976 -2.01968,3.68 -0.84177,1.46874 -2.57146,4.93168 -4.31557,8.64 -0.66222,1.408 -1.37827,2.776 -1.59122,3.04 -0.21296,0.264 -0.85544,1.62189 -1.42774,3.0175 -0.5723,1.39562 -1.15749,2.76362 -1.30044,3.04 -0.4693,0.90736 -1.11174,2.47351 -3.81597,9.3025 -0.73179,1.848 -1.44561,3.648 -1.58627,4 -0.51097,1.27869 -2.79364,8.2079 -4.37478,13.28 -0.46636,1.496 -0.97011,3.08 -1.11946,3.52 -0.50958,1.50128 -2.21553,8.04688 -2.71051,10.4 -0.11107,0.528 -0.39012,1.608 -0.62012,2.4 -0.23,0.792 -0.66894,2.88 -0.97543,4.64 -0.30648,1.76 -0.68187,3.3368 -0.8342,3.504 -0.15233,0.1672 -0.27696,0.9664 -0.27696,1.776 0,0.8096 -0.13629,1.6088 -0.30288,1.776 -0.16658,0.1672 -0.33414,0.952 -0.37235,1.744 -0.0382,0.792 -0.18382,1.59142 -0.32358,1.77648 -0.13976,0.18506 -0.34794,1.62506 -0.46262,3.2 -0.11468,1.57494 -0.30077,3.00752 -0.41354,3.18352 -0.11276,0.176 -0.23275,0.752 -0.26662,1.28 -0.0339,0.528 -0.14475,1.68 -0.24638,2.56 -0.41058,3.55514 -0.48574,4.22474 -0.64656,5.76 -0.0922,0.88 -0.20889,2.46483 -0.25935,3.52182 -0.0505,1.05703 -0.18879,2.07888 -0.30742,2.27082 -0.80001,1.29446 -0.82416,36.68118 -0.0259,37.97277 0.10782,0.17446 0.25223,1.8279 0.32093,3.67433 0.0687,1.84644 0.2682,3.6249 0.44334,3.95213 0.17514,0.32723 0.2307,0.94455 0.12348,1.37175 -0.10723,0.42723 -0.0371,1.07174 0.15583,1.43222 0.19294,0.36051 0.36397,1.63392 0.38008,2.82982 0.0161,1.19588 0.15043,2.3234 0.29852,2.50557 0.22772,0.28016 0.43572,1.8441 0.72911,5.48221 0.0308,0.38141 0.16392,0.80141 0.29592,0.93334 0.132,0.13194 0.24,1.00788 0.24,1.94656 0,0.93866 0.12568,1.70666 0.27929,1.70666 0.15361,0 0.3648,0.684 0.46931,1.52 0.33827,2.70582 2.37337,12.15056 3.25796,15.12 0.52774,1.77152 0.88332,3.14669 1.38596,5.36 0.46128,2.03114 1.1021,4.06483 1.38143,4.384 0.14633,0.1672 0.26605,0.54442 0.26605,0.83827 0,0.79159 4.25078,13.50419 5.39605,16.13773 0.5516,1.26838 0.95542,2.2848 1.97059,4.96 0.56771,1.496 1.15845,2.8568 1.31277,3.024 0.15433,0.1672 0.28059,0.52493 0.28059,0.79494 0,0.26999 0.3551,1.21319 0.7891,2.096 0.43401,0.88279 1.51464,3.18906 2.40142,5.12506 0.88677,1.936 2.12922,4.528 2.76099,5.76 2.83219,5.52294 5.20378,10.00931 5.83599,11.04 0.37785,0.616 0.78878,1.336 0.91318,1.6 1.85673,3.94038 12.63054,20.21504 17.49866,26.43309 1.25437,1.60217 2.56866,3.31129 2.92066,3.79805 0.83839,1.15932 4.08331,5.13872 5.37949,6.59708 0.56128,0.63152 1.66851,1.90237 2.46051,2.82413 5.05966,5.88858 12.85351,13.82355 82.73991,84.23811 6.52294,6.57226 22.21379,22.46154 34.86854,35.30954 12.65475,12.848 28.26983,28.63779 34.7001,35.08842 6.4303,6.45062 13.34745,13.46524 15.37145,15.58803 4.54992,4.77193 3.4913,4.98653 10.70132,-2.16922 z M 1080.8925,376.38218 c 2.8086,-2.84314 3.6997,-3.89668 3.4808,-4.11552 -0.2414,-0.24141 -5.0723,4.2214 -6.5725,6.07164 -1.3647,1.6832 0.9323,0.22992 3.0917,-1.95612 z"
       id="path996" />
  </g>
</svg>
